<?xml version="1.0" encoding="utf-8"?>
<!-- Generator: Adobe Illustrator 15.0.0, SVG Export Plug-In . SVG Version: 6.00 Build 0)  -->
<!DOCTYPE svg PUBLIC "-//W3C//DTD SVG 1.1//EN" "http://www.w3.org/Graphics/SVG/1.1/DTD/svg11.dtd">
<svg version="1.1" id="Layer_1" xmlns="http://www.w3.org/2000/svg" xmlns:xlink="http://www.w3.org/1999/xlink" x="0px" y="0px"
	 width="72.667px" height="50.515px" viewBox="0 0 72.667 50.515" enable-background="new 0 0 72.667 50.515" xml:space="preserve">
<text transform="matrix(1 0 0 1 18.2617 44.6089)" fill="#50BAEF" font-family="'SourceSansPro-Regular'" font-size="11.5029">Analytics</text>
<path fill="#50BAEF" d="M40.635,3.689c-6.211,0-11.244,5.034-11.244,11.244c0,6.21,5.033,11.244,11.244,11.244
	c6.21,0,11.245-5.033,11.245-11.244C51.88,8.723,46.845,3.689,40.635,3.689z M50.708,15.125l-3.465-0.038l-0.852,2.858l-1.023-0.06
	l-1.219-6.958l-1.799,5.4l-0.984,0.04l-1.23-2.901l-1.723,6.82l-1.027-0.021l-1.699-8.141l-1.231,4.29l-0.501,0.835h-2.632
	c-0.292,0-0.527-0.209-0.527-0.5c0-0.291,0.235-0.5,0.527-0.5h2.249l1.725-5.844l1.016-0.193l1.639,7.728l1.547-6.187l0.996-0.107
	l1.298,3.044l2.018-6.062l1.019,0.071l1.192,6.809l0.328-1.101l0.51-0.376l3.862,0.042c0.289,0.002,0.522,0.241,0.52,0.532
	C51.237,14.895,51,15.145,50.708,15.125z"/>
</svg>
