<?xml version="1.0" encoding="utf-8"?>
<!-- Generator: Adobe Illustrator 15.0.0, SVG Export Plug-In . SVG Version: 6.00 Build 0)  -->
<!DOCTYPE svg PUBLIC "-//W3C//DTD SVG 1.1//EN" "http://www.w3.org/Graphics/SVG/1.1/DTD/svg11.dtd">
<svg version="1.1" id="Layer_1" xmlns="http://www.w3.org/2000/svg" xmlns:xlink="http://www.w3.org/1999/xlink" x="0px" y="0px"
	 width="72.667px" height="50.515px" viewBox="0 0 72.667 50.515" enable-background="new 0 0 72.667 50.515" xml:space="preserve">
<text transform="matrix(1 0 0 1 1.3091 45.7163)" fill="#50BAEF" font-family="'SourceSansPro-Regular'" font-size="11.5029">Authentication</text>
<g id="Your_Icon_5_">
	<path fill="#50BAEF" d="M45.914,11.649l-2.611-2.958c0,0-3.018,2.688-6.207-0.003c-3.191,2.69-6.209,0.003-6.209,0.003
		l-2.611,2.958c0,0,2.078,1.393,0.873,4.686c-1.365,3.728-1.744,9.117,7.947,13.021c9.691-3.904,9.311-9.293,7.945-13.021
		C43.835,13.042,45.914,11.649,45.914,11.649z M36.4,22.678c-0.225,0.225-0.518,0.337-0.811,0.337s-0.588-0.112-0.813-0.337
		l-3.014-3.012l1.623-1.625l2.201,2.202l5.215-5.214l1.623,1.624L36.4,22.678z"/>
</g>
</svg>
