<?xml version="1.0" encoding="UTF-8" standalone="no"?>
<!-- Generator: Adobe Illustrator 16.0.0, SVG Export Plug-In . SVG Version: 6.00 Build 0)  -->

<svg
   xmlns:dc="http://purl.org/dc/elements/1.1/"
   xmlns:cc="http://creativecommons.org/ns#"
   xmlns:rdf="http://www.w3.org/1999/02/22-rdf-syntax-ns#"
   xmlns:svg="http://www.w3.org/2000/svg"
   xmlns="http://www.w3.org/2000/svg"
   xmlns:sodipodi="http://sodipodi.sourceforge.net/DTD/sodipodi-0.dtd"
   xmlns:inkscape="http://www.inkscape.org/namespaces/inkscape"
   version="1.1"
   id="Layer_1"
   x="0px"
   y="0px"
   width="100%"
   height="100%"
   viewBox="0 0 804 648.155"
   enable-background="new 0 0 804 648.155"
   xml:space="preserve"
   inkscape:version="0.48.4 r9939"
   sodipodi:docname="DATAMODEL-16.svg"><metadata
     id="metadata177"><rdf:RDF><cc:Work
         rdf:about=""><dc:format>image/svg+xml</dc:format><dc:type
           rdf:resource="http://purl.org/dc/dcmitype/StillImage" /></cc:Work></rdf:RDF></metadata><defs
     id="defs175" /><sodipodi:namedview
     pagecolor="#ffffff"
     bordercolor="#666666"
     borderopacity="1"
     objecttolerance="10"
     gridtolerance="10"
     guidetolerance="10"
     inkscape:pageopacity="0"
     inkscape:pageshadow="2"
     inkscape:window-width="1301"
     inkscape:window-height="744"
     id="namedview173"
     showgrid="false"
     inkscape:zoom="0.36318408"
     inkscape:cx="402"
     inkscape:cy="324.0775"
     inkscape:window-x="65"
     inkscape:window-y="24"
     inkscape:window-maximized="1"
     inkscape:current-layer="Layer_1" /><rect
     x="148.77216"
     y="241.69589"
     width="88.882057"
     height="36.050186"
     id="rect3"
     style="opacity:0.7;fill:#ef4136" /><rect
     x="533.12152"
     y="422.69391"
     width="124.09586"
     height="36.050186"
     id="rect5"
     style="opacity:0.7;fill:#00a778" /><line
     stroke-miterlimit="10"
     x1="143.55885"
     y1="437.77463"
     x2="314.38522"
     y2="266.5383"
     id="line7"
     style="opacity:0.5;fill:none;stroke:#414042;stroke-width:1.76204121;stroke-miterlimit:10" /><line
     stroke-miterlimit="10"
     x1="143.55885"
     y1="437.77463"
     x2="62.320534"
     y2="592.62042"
     id="line9"
     style="opacity:0.5;fill:none;stroke:#414042;stroke-width:1.76204121;stroke-miterlimit:10" /><line
     stroke-miterlimit="10"
     x1="143.55885"
     y1="437.77463"
     x2="127.7651"
     y2="592.62042"
     id="line11"
     style="opacity:0.5;fill:none;stroke:#414042;stroke-width:1.76204121;stroke-miterlimit:10" /><line
     stroke-miterlimit="10"
     x1="143.55885"
     y1="437.77463"
     x2="193.21318"
     y2="592.62042"
     id="line13"
     style="opacity:0.5;fill:none;stroke:#414042;stroke-width:1.76204121;stroke-miterlimit:10" /><line
     stroke-miterlimit="10"
     x1="423.40509"
     y1="437.77463"
     x2="351.22949"
     y2="592.62042"
     id="line15"
     style="opacity:0.5;fill:none;stroke:#414042;stroke-width:1.76204121;stroke-miterlimit:10" /><line
     stroke-miterlimit="10"
     x1="423.40509"
     y1="437.77463"
     x2="416.67407"
     y2="592.62042"
     id="line17"
     style="opacity:0.5;fill:none;stroke:#414042;stroke-width:1.76204121;stroke-miterlimit:10" /><line
     stroke-miterlimit="10"
     x1="423.40509"
     y1="437.77463"
     x2="482.11978"
     y2="592.62042"
     id="line19"
     style="opacity:0.5;fill:none;stroke:#414042;stroke-width:1.76204121;stroke-miterlimit:10" /><g
     id="g21"
     transform="matrix(1.1746941,0,0,1.1746941,-37.026866,-70.339297)"
     style="opacity:0.5"><g
       id="g23"><line
         stroke-miterlimit="10"
         x1="391.95901"
         y1="432.54999"
         x2="389.27301"
         y2="428.332"
         id="line25"
         style="fill:none;stroke:#414042;stroke-width:3;stroke-miterlimit:10" /><line
         stroke-miterlimit="10"
         x1="384.13101"
         y1="420.254"
         x2="304.409"
         y2="295.03601"
         id="line27"
         style="fill:none;stroke:#414042;stroke-width:3;stroke-miterlimit:10;stroke-dasharray:9.5769, 9.5769" /><line
         stroke-miterlimit="10"
         x1="301.83801"
         y1="290.99701"
         x2="299.15201"
         y2="286.77899"
         id="line29"
         style="fill:none;stroke:#414042;stroke-width:3;stroke-miterlimit:10" /></g></g><g
     id="g31"
     transform="matrix(1.1746941,0,0,1.1746941,-37.026866,-70.339297)"
     style="opacity:0.5"><g
       id="g33"><line
         stroke-miterlimit="10"
         x1="391.95901"
         y1="432.54999"
         x2="394.23599"
         y2="428.099"
         id="line35"
         style="fill:none;stroke:#414042;stroke-width:3;stroke-miterlimit:10" /><line
         stroke-miterlimit="10"
         x1="398.905"
         y1="418.97501"
         x2="461.93201"
         y2="295.793"
         id="line37"
         style="fill:none;stroke:#414042;stroke-width:3;stroke-miterlimit:10;stroke-dasharray:10.2496, 10.2496" /><line
         stroke-miterlimit="10"
         x1="464.26599"
         y1="291.23001"
         x2="466.54401"
         y2="286.77899"
         id="line39"
         style="fill:none;stroke:#414042;stroke-width:3;stroke-miterlimit:10" /></g></g><g
     id="g41"
     transform="matrix(1.1746941,0,0,1.1746941,-37.026866,-70.339297)"
     style="opacity:0.5"><g
       id="g43"><line
         stroke-miterlimit="10"
         x1="391.95901"
         y1="432.54999"
         x2="396.34"
         y2="430.13901"
         id="line45"
         style="fill:none;stroke:#414042;stroke-width:3;stroke-miterlimit:10" /><line
         stroke-miterlimit="10"
         x1="405.35001"
         y1="425.17999"
         x2="635.13898"
         y2="298.711"
         id="line47"
         style="fill:none;stroke:#414042;stroke-width:3;stroke-miterlimit:10;stroke-dasharray:10.286, 10.286" /><line
         stroke-miterlimit="10"
         x1="639.64502"
         y1="296.23001"
         x2="644.02502"
         y2="293.82001"
         id="line49"
         style="fill:none;stroke:#414042;stroke-width:3;stroke-miterlimit:10" /></g></g><line
     stroke-miterlimit="10"
     x1="533.46332"
     y1="71.337036"
     x2="314.38522"
     y2="266.5383"
     id="line51"
     style="opacity:0.5;fill:none;stroke:#414042;stroke-width:1.76204121;stroke-miterlimit:10" /><line
     stroke-miterlimit="10"
     x1="533.46332"
     y1="71.337036"
     x2="511.01962"
     y2="274.80936"
     id="line53"
     style="opacity:0.5;fill:none;stroke:#414042;stroke-width:1.76204121;stroke-miterlimit:10" /><line
     stroke-miterlimit="10"
     x1="533.46332"
     y1="71.337036"
     x2="719.50549"
     y2="266.5383"
     id="line55"
     style="opacity:0.5;fill:none;stroke:#414042;stroke-width:1.76204121;stroke-miterlimit:10" /><g
     id="g57"
     transform="matrix(1.1746941,0,0,1.1746941,-37.026866,-70.339297)"
     style="opacity:0.7"><path
       d="m 689.257,323.819 c 0,3.3 -2.7,6 -6,6 H 252.492 c -3.3,0 -6,-2.7 -6,-6 v -77.996 c 0,-3.3 2.7,-6 6,-6 h 430.765 c 3.3,0 6,2.7 6,6 v 77.996 z"
       id="path59"
       inkscape:connector-curvature="0"
       style="fill:#ffffff" /><path
       stroke-miterlimit="10"
       d="m 689.257,323.819 c 0,3.3 -2.7,6 -6,6 H 252.492 c -3.3,0 -6,-2.7 -6,-6 v -77.996 c 0,-3.3 2.7,-6 6,-6 h 430.765 c 3.3,0 6,2.7 6,6 v 77.996 z"
       id="path61"
       inkscape:connector-curvature="0"
       style="fill:none;stroke:#ef4136;stroke-width:1.5;stroke-miterlimit:10;stroke-dasharray:2.9976, 2.9976" /></g><g
     id="g63"
     transform="matrix(1.1746941,0,0,1.1746941,-37.026866,-70.339297)"
     style="opacity:0.7"><path
       d="m 472.668,465.334 c 0,3.299 -2.701,6 -6,6 H 95.182 c -3.299,0 -6,-2.701 -6,-6 V 400 c 0,-3.3 2.701,-6 6,-6 h 371.486 c 3.299,0 6,2.7 6,6 v 65.334 z"
       id="path65"
       inkscape:connector-curvature="0"
       style="fill:#ffffff" /><path
       stroke-miterlimit="10"
       d="m 472.668,465.334 c 0,3.299 -2.701,6 -6,6 H 95.182 c -3.299,0 -6,-2.701 -6,-6 V 400 c 0,-3.3 2.701,-6 6,-6 h 371.486 c 3.299,0 6,2.7 6,6 v 65.334 z"
       id="path67"
       inkscape:connector-curvature="0"
       style="fill:none;stroke:#00a778;stroke-width:1.5;stroke-miterlimit:10;stroke-dasharray:2.9976, 2.9976" /></g><g
     id="g69"
     transform="matrix(1.1746941,0,0,1.1746941,-37.026866,-70.339297)"><circle
       cx="485.651"
       cy="120.608"
       r="37.153"
       id="circle71"
       d="m 522.804,120.608 c 0,20.51904 -16.63396,37.153 -37.153,37.153 -20.51903,0 -37.153,-16.63396 -37.153,-37.153 0,-20.51903 16.63397,-37.152998 37.153,-37.152998 20.51904,0 37.153,16.633968 37.153,37.152998 z"
       sodipodi:cx="485.651"
       sodipodi:cy="120.608"
       sodipodi:rx="37.153"
       sodipodi:ry="37.153"
       style="fill:#ffffff" /><circle
       stroke-miterlimit="10"
       cx="485.651"
       cy="120.608"
       r="37.153"
       id="circle73"
       d="m 522.804,120.608 c 0,20.51904 -16.63396,37.153 -37.153,37.153 -20.51903,0 -37.153,-16.63396 -37.153,-37.153 0,-20.51903 16.63397,-37.152998 37.153,-37.152998 20.51904,0 37.153,16.633968 37.153,37.152998 z"
       sodipodi:cx="485.651"
       sodipodi:cy="120.608"
       sodipodi:rx="37.153"
       sodipodi:ry="37.153"
       style="fill:none;stroke:#6d6e71;stroke-width:4;stroke-miterlimit:10" /></g><g
     id="g75"
     transform="matrix(1.1746941,0,0,1.1746941,-37.026866,-70.339297)"><circle
       cx="299.15201"
       cy="286.77899"
       r="23.648001"
       id="circle77"
       d="m 322.80001,286.77899 c 0,13.06043 -10.58757,23.648 -23.648,23.648 -13.06043,0 -23.648,-10.58757 -23.648,-23.648 0,-13.06043 10.58757,-23.648 23.648,-23.648 13.06043,0 23.648,10.58757 23.648,23.648 z"
       sodipodi:cx="299.15201"
       sodipodi:cy="286.77899"
       sodipodi:rx="23.648001"
       sodipodi:ry="23.648001"
       style="fill:#ffffff" /><circle
       stroke-miterlimit="10"
       cx="299.15201"
       cy="286.77899"
       r="23.648001"
       id="circle79"
       d="m 322.80001,286.77899 c 0,13.06043 -10.58757,23.648 -23.648,23.648 -13.06043,0 -23.648,-10.58757 -23.648,-23.648 0,-13.06043 10.58757,-23.648 23.648,-23.648 13.06043,0 23.648,10.58757 23.648,23.648 z"
       sodipodi:cx="299.15201"
       sodipodi:cy="286.77899"
       sodipodi:rx="23.648001"
       sodipodi:ry="23.648001"
       style="fill:none;stroke:#6d6e71;stroke-width:3;stroke-miterlimit:10" /></g><g
     id="g81"
     transform="matrix(1.1746941,0,0,1.1746941,-37.026866,-70.339297)"
     style="opacity:0.9"><circle
       cx="154.05099"
       cy="432.54999"
       r="23.648001"
       id="circle83"
       d="m 177.699,432.54999 c 0,13.06043 -10.58757,23.648 -23.64801,23.648 -13.06043,0 -23.648,-10.58757 -23.648,-23.648 0,-13.06043 10.58757,-23.648 23.648,-23.648 13.06044,0 23.64801,10.58757 23.64801,23.648 z"
       sodipodi:cx="154.05099"
       sodipodi:cy="432.54999"
       sodipodi:rx="23.648001"
       sodipodi:ry="23.648001"
       style="fill:#ffffff" /><circle
       stroke-miterlimit="10"
       cx="154.05099"
       cy="432.54999"
       r="23.648001"
       id="circle85"
       d="m 177.699,432.54999 c 0,13.06043 -10.58757,23.648 -23.64801,23.648 -13.06043,0 -23.648,-10.58757 -23.648,-23.648 0,-13.06043 10.58757,-23.648 23.648,-23.648 13.06044,0 23.64801,10.58757 23.64801,23.648 z"
       sodipodi:cx="154.05099"
       sodipodi:cy="432.54999"
       sodipodi:rx="23.648001"
       sodipodi:ry="23.648001"
       style="fill:none;stroke:#6d6e71;stroke-width:3;stroke-miterlimit:10" /></g><g
     id="g87"
     transform="matrix(1.1746941,0,0,1.1746941,-37.026866,-70.339297)"
     style="opacity:0.9"><circle
       cx="84.572998"
       cy="564.36798"
       r="19.952"
       id="circle89"
       d="m 104.525,564.36798 c 0,11.01919 -8.932817,19.952 -19.952002,19.952 -11.019185,0 -19.952,-8.93281 -19.952,-19.952 0,-11.01918 8.932815,-19.952 19.952,-19.952 11.019185,0 19.952002,8.93282 19.952002,19.952 z"
       sodipodi:cx="84.572998"
       sodipodi:cy="564.36798"
       sodipodi:rx="19.952"
       sodipodi:ry="19.952"
       style="fill:#ffffff" /><circle
       stroke-miterlimit="10"
       cx="84.572998"
       cy="564.36798"
       r="19.952"
       id="circle91"
       d="m 104.525,564.36798 c 0,11.01919 -8.932817,19.952 -19.952002,19.952 -11.019185,0 -19.952,-8.93281 -19.952,-19.952 0,-11.01918 8.932815,-19.952 19.952,-19.952 11.019185,0 19.952002,8.93282 19.952002,19.952 z"
       sodipodi:cx="84.572998"
       sodipodi:cy="564.36798"
       sodipodi:rx="19.952"
       sodipodi:ry="19.952"
       style="fill:none;stroke:#6d6e71;stroke-width:3;stroke-miterlimit:10" /></g><g
     id="g93"
     transform="matrix(1.1746941,0,0,1.1746941,-37.026866,-70.339297)"
     style="opacity:0.9"><circle
       cx="140.286"
       cy="564.36798"
       r="19.952"
       id="circle95"
       d="m 160.238,564.36798 c 0,11.01919 -8.93282,19.952 -19.952,19.952 -11.01919,0 -19.952,-8.93281 -19.952,-19.952 0,-11.01918 8.93281,-19.952 19.952,-19.952 11.01918,0 19.952,8.93282 19.952,19.952 z"
       sodipodi:cx="140.286"
       sodipodi:cy="564.36798"
       sodipodi:rx="19.952"
       sodipodi:ry="19.952"
       style="fill:#ffffff" /><circle
       stroke-miterlimit="10"
       cx="140.286"
       cy="564.36798"
       r="19.952"
       id="circle97"
       d="m 160.238,564.36798 c 0,11.01919 -8.93282,19.952 -19.952,19.952 -11.01919,0 -19.952,-8.93281 -19.952,-19.952 0,-11.01918 8.93281,-19.952 19.952,-19.952 11.01918,0 19.952,8.93282 19.952,19.952 z"
       sodipodi:cx="140.286"
       sodipodi:cy="564.36798"
       sodipodi:rx="19.952"
       sodipodi:ry="19.952"
       style="fill:none;stroke:#6d6e71;stroke-width:3;stroke-miterlimit:10" /></g><g
     id="g99"
     transform="matrix(1.1746941,0,0,1.1746941,-37.026866,-70.339297)"
     style="opacity:0.9"><circle
       cx="195.99899"
       cy="564.36798"
       r="19.952"
       id="circle101"
       d="m 215.95099,564.36798 c 0,11.01919 -8.93281,19.952 -19.952,19.952 -11.01918,0 -19.952,-8.93281 -19.952,-19.952 0,-11.01918 8.93282,-19.952 19.952,-19.952 11.01919,0 19.952,8.93282 19.952,19.952 z"
       sodipodi:cx="195.99899"
       sodipodi:cy="564.36798"
       sodipodi:rx="19.952"
       sodipodi:ry="19.952"
       style="fill:#ffffff" /><circle
       stroke-miterlimit="10"
       cx="195.99899"
       cy="564.36798"
       r="19.952"
       id="circle103"
       d="m 215.95099,564.36798 c 0,11.01919 -8.93281,19.952 -19.952,19.952 -11.01918,0 -19.952,-8.93281 -19.952,-19.952 0,-11.01918 8.93282,-19.952 19.952,-19.952 11.01919,0 19.952,8.93282 19.952,19.952 z"
       sodipodi:cx="195.99899"
       sodipodi:cy="564.36798"
       sodipodi:rx="19.952"
       sodipodi:ry="19.952"
       style="fill:none;stroke:#6d6e71;stroke-width:3;stroke-miterlimit:10" /></g><g
     id="g105"
     transform="matrix(1.1746941,0,0,1.1746941,-37.026866,-70.339297)"
     style="opacity:0.9"><circle
       cx="330.517"
       cy="564.36798"
       r="19.952"
       id="circle107"
       d="m 350.469,564.36798 c 0,11.01919 -8.93282,19.952 -19.952,19.952 -11.01919,0 -19.952,-8.93281 -19.952,-19.952 0,-11.01918 8.93281,-19.952 19.952,-19.952 11.01918,0 19.952,8.93282 19.952,19.952 z"
       sodipodi:cx="330.517"
       sodipodi:cy="564.36798"
       sodipodi:rx="19.952"
       sodipodi:ry="19.952"
       style="fill:#ffffff" /><circle
       stroke-miterlimit="10"
       cx="330.517"
       cy="564.36798"
       r="19.952"
       id="circle109"
       d="m 350.469,564.36798 c 0,11.01919 -8.93282,19.952 -19.952,19.952 -11.01919,0 -19.952,-8.93281 -19.952,-19.952 0,-11.01918 8.93281,-19.952 19.952,-19.952 11.01918,0 19.952,8.93282 19.952,19.952 z"
       sodipodi:cx="330.517"
       sodipodi:cy="564.36798"
       sodipodi:rx="19.952"
       sodipodi:ry="19.952"
       style="fill:none;stroke:#6d6e71;stroke-width:3;stroke-miterlimit:10" /></g><g
     id="g111"
     transform="matrix(1.1746941,0,0,1.1746941,-37.026866,-70.339297)"
     style="opacity:0.9"><circle
       cx="386.229"
       cy="564.36798"
       r="19.952"
       id="circle113"
       d="m 406.181,564.36798 c 0,11.01919 -8.93281,19.952 -19.952,19.952 -11.01918,0 -19.952,-8.93281 -19.952,-19.952 0,-11.01918 8.93282,-19.952 19.952,-19.952 11.01919,0 19.952,8.93282 19.952,19.952 z"
       sodipodi:cx="386.229"
       sodipodi:cy="564.36798"
       sodipodi:rx="19.952"
       sodipodi:ry="19.952"
       style="fill:#ffffff" /><circle
       stroke-miterlimit="10"
       cx="386.229"
       cy="564.36798"
       r="19.952"
       id="circle115"
       d="m 406.181,564.36798 c 0,11.01919 -8.93281,19.952 -19.952,19.952 -11.01918,0 -19.952,-8.93281 -19.952,-19.952 0,-11.01918 8.93282,-19.952 19.952,-19.952 11.01919,0 19.952,8.93282 19.952,19.952 z"
       sodipodi:cx="386.229"
       sodipodi:cy="564.36798"
       sodipodi:rx="19.952"
       sodipodi:ry="19.952"
       style="fill:none;stroke:#6d6e71;stroke-width:3;stroke-miterlimit:10" /></g><g
     id="g117"
     transform="matrix(1.1746941,0,0,1.1746941,-37.026866,-70.339297)"
     style="opacity:0.9"><circle
       cx="441.94199"
       cy="564.36798"
       r="19.952"
       id="circle119"
       d="m 461.89399,564.36798 c 0,11.01919 -8.93282,19.952 -19.952,19.952 -11.01919,0 -19.952,-8.93281 -19.952,-19.952 0,-11.01918 8.93281,-19.952 19.952,-19.952 11.01918,0 19.952,8.93282 19.952,19.952 z"
       sodipodi:cx="441.94199"
       sodipodi:cy="564.36798"
       sodipodi:rx="19.952"
       sodipodi:ry="19.952"
       style="fill:#ffffff" /><circle
       stroke-miterlimit="10"
       cx="441.94199"
       cy="564.36798"
       r="19.952"
       id="circle121"
       d="m 461.89399,564.36798 c 0,11.01919 -8.93282,19.952 -19.952,19.952 -11.01919,0 -19.952,-8.93281 -19.952,-19.952 0,-11.01918 8.93281,-19.952 19.952,-19.952 11.01918,0 19.952,8.93282 19.952,19.952 z"
       sodipodi:cx="441.94199"
       sodipodi:cy="564.36798"
       sodipodi:rx="19.952"
       sodipodi:ry="19.952"
       style="fill:none;stroke:#6d6e71;stroke-width:3;stroke-miterlimit:10" /></g><g
     id="g123"
     transform="matrix(1.1746941,0,0,1.1746941,-37.026866,-70.339297)"
     style="opacity:0.9"><circle
       cx="393.30301"
       cy="432.54999"
       r="23.648001"
       id="circle125"
       d="m 416.95101,432.54999 c 0,13.06043 -10.58757,23.648 -23.648,23.648 -13.06043,0 -23.648,-10.58757 -23.648,-23.648 0,-13.06043 10.58757,-23.648 23.648,-23.648 13.06043,0 23.648,10.58757 23.648,23.648 z"
       sodipodi:cx="393.30301"
       sodipodi:cy="432.54999"
       sodipodi:rx="23.648001"
       sodipodi:ry="23.648001"
       style="fill:#ffffff" /><circle
       stroke-miterlimit="10"
       cx="393.30301"
       cy="432.54999"
       r="23.648001"
       id="circle127"
       d="m 416.95101,432.54999 c 0,13.06043 -10.58757,23.648 -23.648,23.648 -13.06043,0 -23.648,-10.58757 -23.648,-23.648 0,-13.06043 10.58757,-23.648 23.648,-23.648 13.06043,0 23.648,10.58757 23.648,23.648 z"
       sodipodi:cx="393.30301"
       sodipodi:cy="432.54999"
       sodipodi:rx="23.648001"
       sodipodi:ry="23.648001"
       style="fill:none;stroke:#6d6e71;stroke-width:3;stroke-miterlimit:10" /></g><g
     id="g129"
     transform="matrix(1.1746941,0,0,1.1746941,-37.026866,-70.339297)"><circle
       cx="466.543"
       cy="286.77899"
       r="23.648001"
       id="circle131"
       d="m 490.191,286.77899 c 0,13.06043 -10.58757,23.648 -23.648,23.648 -13.06043,0 -23.648,-10.58757 -23.648,-23.648 0,-13.06043 10.58757,-23.648 23.648,-23.648 13.06043,0 23.648,10.58757 23.648,23.648 z"
       sodipodi:cx="466.543"
       sodipodi:cy="286.77899"
       sodipodi:rx="23.648001"
       sodipodi:ry="23.648001"
       style="fill:#ffffff" /><circle
       stroke-miterlimit="10"
       cx="466.543"
       cy="286.77899"
       r="23.648001"
       id="circle133"
       d="m 490.191,286.77899 c 0,13.06043 -10.58757,23.648 -23.648,23.648 -13.06043,0 -23.648,-10.58757 -23.648,-23.648 0,-13.06043 10.58757,-23.648 23.648,-23.648 13.06043,0 23.648,10.58757 23.648,23.648 z"
       sodipodi:cx="466.543"
       sodipodi:cy="286.77899"
       sodipodi:rx="23.648001"
       sodipodi:ry="23.648001"
       style="fill:none;stroke:#6d6e71;stroke-width:3;stroke-miterlimit:10" /></g><g
     id="g135"
     transform="matrix(1.1746941,0,0,1.1746941,-37.026866,-70.339297)"><circle
       cx="644.02502"
       cy="286.77899"
       r="23.648001"
       id="circle137"
       d="m 667.67303,286.77899 c 0,13.06043 -10.58758,23.648 -23.64801,23.648 -13.06043,0 -23.648,-10.58757 -23.648,-23.648 0,-13.06043 10.58757,-23.648 23.648,-23.648 13.06043,0 23.64801,10.58757 23.64801,23.648 z"
       sodipodi:cx="644.02502"
       sodipodi:cy="286.77899"
       sodipodi:rx="23.648001"
       sodipodi:ry="23.648001"
       style="fill:#ffffff" /><circle
       stroke-miterlimit="10"
       cx="644.02502"
       cy="286.77899"
       r="23.648001"
       id="circle139"
       d="m 667.67303,286.77899 c 0,13.06043 -10.58758,23.648 -23.64801,23.648 -13.06043,0 -23.648,-10.58757 -23.648,-23.648 0,-13.06043 10.58757,-23.648 23.648,-23.648 13.06043,0 23.64801,10.58757 23.64801,23.648 z"
       sodipodi:cx="644.02502"
       sodipodi:cy="286.77899"
       sodipodi:rx="23.648001"
       sodipodi:ry="23.648001"
       style="fill:none;stroke:#6d6e71;stroke-width:3;stroke-miterlimit:10" /></g><g
     id="g141"
     transform="matrix(1.1746941,0,0,1.1746941,-37.026866,-70.339297)"><path
       d="m 173.149,282.602 v -7.026 h 1.2 v 6.994 c 0,2.113 1.072,3.281 2.833,3.281 1.713,0 2.801,-1.104 2.801,-3.233 v -7.042 h 1.201 v 6.962 c 0,2.882 -1.617,4.418 -4.034,4.418 -2.384,-0.001 -4.001,-1.537 -4.001,-4.354 z"
       id="path143"
       inkscape:connector-curvature="0"
       style="fill:#ffffff" /><path
       d="m 182.988,285.354 0.753,-0.912 c 0.928,0.864 1.889,1.393 3.153,1.393 1.345,0 2.24,-0.816 2.24,-1.889 v -0.017 c 0,-0.928 -0.447,-1.521 -2.48,-2.24 -2.321,-0.864 -3.233,-1.697 -3.233,-3.281 v -0.032 c 0,-1.681 1.408,-2.961 3.377,-2.961 1.297,0 2.369,0.399 3.361,1.265 l -0.72,0.928 c -0.832,-0.72 -1.713,-1.088 -2.689,-1.088 -1.28,0 -2.112,0.784 -2.112,1.744 v 0.032 c 0,0.977 0.496,1.536 2.608,2.305 2.273,0.849 3.105,1.761 3.105,3.25 v 0.031 c 0,1.793 -1.473,3.058 -3.474,3.058 -1.439,-10e-4 -2.72,-0.497 -3.889,-1.586 z"
       id="path145"
       inkscape:connector-curvature="0"
       style="fill:#ffffff" /><path
       d="m 192.493,275.575 h 6.835 v 1.104 h -5.635 v 3.905 h 5.059 v 1.088 h -5.059 v 4.002 h 5.715 v 1.104 h -6.915 v -11.203 z"
       id="path147"
       inkscape:connector-curvature="0"
       style="fill:#ffffff" /><path
       d="m 201.549,275.575 h 3.825 c 1.28,0 2.305,0.384 2.945,1.04 0.561,0.561 0.881,1.36 0.881,2.305 v 0.032 c 0,1.776 -1.104,2.85 -2.657,3.233 l 3.009,4.594 h -1.44 l -2.817,-4.354 h -2.545 v 4.354 h -1.2 v -11.204 z m 3.617,5.762 c 1.825,0 2.833,-0.912 2.833,-2.337 v -0.032 c 0,-1.473 -1.024,-2.288 -2.705,-2.288 h -2.545 v 4.657 h 2.417 z"
       id="path149"
       inkscape:connector-curvature="0"
       style="fill:#ffffff" /><path
       d="m 210.731,285.354 0.753,-0.912 c 0.928,0.864 1.889,1.393 3.153,1.393 1.345,0 2.24,-0.816 2.24,-1.889 v -0.017 c 0,-0.928 -0.447,-1.521 -2.48,-2.24 -2.321,-0.864 -3.233,-1.697 -3.233,-3.281 v -0.032 c 0,-1.681 1.408,-2.961 3.377,-2.961 1.297,0 2.369,0.399 3.361,1.265 l -0.72,0.928 c -0.832,-0.72 -1.713,-1.088 -2.689,-1.088 -1.28,0 -2.112,0.784 -2.112,1.744 v 0.032 c 0,0.977 0.496,1.536 2.608,2.305 2.273,0.849 3.105,1.761 3.105,3.25 v 0.031 c 0,1.793 -1.473,3.058 -3.474,3.058 -1.439,-10e-4 -2.72,-0.497 -3.889,-1.586 z"
       id="path151"
       inkscape:connector-curvature="0"
       style="fill:#ffffff" /></g><g
     id="g153"
     transform="matrix(1.1746941,0,0,1.1746941,-37.026866,-70.339297)"><path
       d="m 491.104,434.233 v -0.096 c 0,-3.394 2.113,-5.73 4.914,-5.73 1.537,0 2.529,0.56 3.409,1.376 l -0.736,0.913 c -0.704,-0.673 -1.552,-1.169 -2.688,-1.169 -2.065,0 -3.649,1.889 -3.649,4.594 v 0.064 c 0,2.753 1.584,4.626 3.649,4.626 1.152,0 1.969,-0.48 2.769,-1.249 l 0.721,0.832 c -0.944,0.929 -2.017,1.537 -3.554,1.537 -2.769,0.001 -4.835,-2.288 -4.835,-5.698 z"
       id="path155"
       inkscape:connector-curvature="0"
       style="fill:#ffffff" /><path
       d="m 501.377,428.567 h 1.2 v 5.01 h 5.41 v -5.01 h 1.2 v 11.204 h -1.2 v -5.074 h -5.41 v 5.074 h -1.2 v -11.204 z"
       id="path157"
       inkscape:connector-curvature="0"
       style="fill:#ffffff" /><path
       d="m 515.33,428.503 h 1.185 l 4.273,11.269 h -1.28 l -1.088,-2.945 h -5.042 l -1.089,2.945 h -1.232 l 4.273,-11.269 z m 2.69,7.235 -2.113,-5.683 -2.129,5.683 h 4.242 z"
       id="path159"
       inkscape:connector-curvature="0"
       style="fill:#ffffff" /><path
       d="m 523.857,429.688 h -3.137 v -1.12 h 7.491 v 1.12 h -3.153 v 10.084 h -1.201 v -10.084 z"
       id="path161"
       inkscape:connector-curvature="0"
       style="fill:#ffffff" /><path
       d="m 533.872,434.233 v -0.112 c 0,-3.249 2.049,-5.714 4.994,-5.714 1.457,0 2.434,0.416 3.394,1.2 l -0.721,0.96 c -0.688,-0.607 -1.488,-1.04 -2.705,-1.04 -2.129,0 -3.713,1.921 -3.713,4.594 v 0.08 c 0,2.817 1.521,4.642 3.825,4.642 0.961,0 1.841,-0.352 2.417,-0.8 v -3.153 h -2.801 v -1.072 h 3.953 v 4.802 c -0.864,0.704 -2.129,1.313 -3.617,1.313 -3.057,-10e-4 -5.026,-2.323 -5.026,-5.7 z"
       id="path163"
       inkscape:connector-curvature="0"
       style="fill:#ffffff" /><path
       d="m 544.977,428.567 h 3.825 c 1.28,0 2.305,0.384 2.945,1.04 0.561,0.561 0.881,1.36 0.881,2.305 v 0.032 c 0,1.776 -1.104,2.85 -2.657,3.233 l 3.009,4.594 h -1.44 l -2.817,-4.354 h -2.545 v 4.354 h -1.2 v -11.204 z m 3.617,5.762 c 1.825,0 2.833,-0.912 2.833,-2.337 v -0.032 c 0,-1.473 -1.024,-2.288 -2.705,-2.288 h -2.545 v 4.657 h 2.417 z"
       id="path165"
       inkscape:connector-curvature="0"
       style="fill:#ffffff" /><path
       d="m 554.479,434.249 v -0.128 c 0,-3.297 1.985,-5.73 4.834,-5.73 2.85,0 4.802,2.417 4.802,5.698 v 0.128 c 0,3.298 -1.969,5.73 -4.817,5.73 -2.865,0 -4.819,-2.417 -4.819,-5.698 z m 8.404,-0.016 v -0.112 c 0,-2.705 -1.521,-4.626 -3.585,-4.626 -2.065,0 -3.569,1.905 -3.569,4.61 v 0.111 c 0,2.705 1.521,4.626 3.585,4.626 2.065,0.001 3.569,-1.904 3.569,-4.609 z"
       id="path167"
       inkscape:connector-curvature="0"
       style="fill:#ffffff" /><path
       d="m 566.24,435.594 v -7.026 h 1.2 v 6.994 c 0,2.113 1.072,3.281 2.833,3.281 1.713,0 2.801,-1.104 2.801,-3.233 v -7.042 h 1.201 v 6.962 c 0,2.882 -1.617,4.418 -4.034,4.418 -2.385,-10e-4 -4.001,-1.537 -4.001,-4.354 z"
       id="path169"
       inkscape:connector-curvature="0"
       style="fill:#ffffff" /><path
       d="m 576.832,428.567 h 3.377 c 2.385,0 3.938,1.344 3.938,3.553 v 0.032 c 0,2.369 -1.792,3.649 -4.081,3.666 h -2.033 v 3.953 h -1.2 v -11.204 z m 3.265,6.162 c 1.745,0 2.834,-1.009 2.834,-2.545 v -0.017 c 0,-1.632 -1.089,-2.496 -2.785,-2.496 h -2.113 v 5.058 h 2.064 z"
       id="path171"
       inkscape:connector-curvature="0"
       style="fill:#ffffff" /></g></svg>