<?xml version="1.0" encoding="utf-8"?>
<!-- Generator: Adobe Illustrator 15.0.0, SVG Export Plug-In . SVG Version: 6.00 Build 0)  -->
<!DOCTYPE svg PUBLIC "-//W3C//DTD SVG 1.1//EN" "http://www.w3.org/Graphics/SVG/1.1/DTD/svg11.dtd">
<svg version="1.1" id="Layer_1" xmlns="http://www.w3.org/2000/svg" xmlns:xlink="http://www.w3.org/1999/xlink" x="0px" y="0px"
	 width="72.667px" height="50.515px" viewBox="0 0 72.667 50.515" enable-background="new 0 0 72.667 50.515" xml:space="preserve">
<text transform="matrix(1 0 0 1 4.9053 40.9194)" fill="#50BAEF" font-family="Source Sans Pro Regular" font-size="11.5029">Data Browser</text>
<path fill="#50BAEF" d="M46.247,6.973c-0.801,0-1.508,0.409-1.924,1.028l-7.642-2.1c0.021-0.156,0.036-0.314,0.036-0.471
	c0-1.881-1.523-3.404-3.398-3.404c-1.879,0-3.402,1.523-3.402,3.404c0,1.49,0.966,2.757,2.306,3.213l-0.655,4.109
	c-0.332-0.071-0.675-0.112-1.033-0.112c-2.676,0-4.842,2.169-4.842,4.843c0,2.677,2.166,4.845,4.842,4.845
	c2.674,0,4.846-2.168,4.846-4.845c0-0.693-0.148-1.349-0.41-1.946l9.383-4.917c0.418,0.597,1.113,0.989,1.895,0.989
	c1.285,0,2.322-1.038,2.322-2.318C48.569,8.009,47.532,6.973,46.247,6.973z M34.571,14.813c-0.533-0.81-1.303-1.446-2.21-1.814
	l0.669-4.186c0.096,0.008,0.188,0.012,0.289,0.012c1.428,0,2.65-0.88,3.149-2.129l7.523,2.071c-0.035,0.166-0.061,0.342-0.061,0.523
	c0,0.2,0.028,0.394,0.076,0.581L34.571,14.813z"/>
</svg>
