<?xml version="1.0" encoding="UTF-8" standalone="no"?>
<!-- Generator: Adobe Illustrator 16.0.0, SVG Export Plug-In . SVG Version: 6.00 Build 0)  -->

<svg
   xmlns:dc="http://purl.org/dc/elements/1.1/"
   xmlns:cc="http://creativecommons.org/ns#"
   xmlns:rdf="http://www.w3.org/1999/02/22-rdf-syntax-ns#"
   xmlns:svg="http://www.w3.org/2000/svg"
   xmlns="http://www.w3.org/2000/svg"
   xmlns:xlink="http://www.w3.org/1999/xlink"
   xmlns:sodipodi="http://sodipodi.sourceforge.net/DTD/sodipodi-0.dtd"
   xmlns:inkscape="http://www.inkscape.org/namespaces/inkscape"
   version="1.1"
   id="Layer_1"
   x="0px"
   y="0px"
   width="100%"
   height="100%"
   viewBox="0 0 573.057 149.45"
   enable-background="new 0 0 573.057 149.45"
   xml:space="preserve"
   inkscape:version="0.48.4 r9939"
   sodipodi:docname="globe.svg"><metadata
     id="metadata3203"><rdf:RDF><cc:Work
         rdf:about=""><dc:format>image/svg+xml</dc:format><dc:type
           rdf:resource="http://purl.org/dc/dcmitype/StillImage" /><dc:title /></cc:Work></rdf:RDF></metadata><defs
     id="defs3201"><marker
       inkscape:stockid="DotM"
       orient="auto"
       refY="0.0"
       refX="0.0"
       id="DotM"
       style="overflow:visible"><path
         id="path4814"
         d="M -2.5,-1.0 C -2.5,1.7600000 -4.7400000,4.0 -7.5,4.0 C -10.260000,4.0 -12.5,1.7600000 -12.5,-1.0 C -12.5,-3.7600000 -10.260000,-6.0 -7.5,-6.0 C -4.7400000,-6.0 -2.5,-3.7600000 -2.5,-1.0 z "
         style="fill-rule:evenodd;stroke:#000000;stroke-width:1.0pt"
         transform="scale(0.4) translate(7.4, 1)" /></marker><mask
       maskUnits="userSpaceOnUse"
       id="mask3212"><rect
         style="opacity:0.98000004;fill:#595758;fill-opacity:1;stroke:#2e77b0;stroke-width:3;stroke-linecap:round;stroke-linejoin:miter;stroke-miterlimit:4;stroke-opacity:1;stroke-dasharray:3, 6;stroke-dashoffset:0"
         id="rect3214"
         width="452.83832"
         height="147.30321"
         x="56.545418"
         y="0.24609953" /></mask></defs><sodipodi:namedview
     pagecolor="#ffffff"
     bordercolor="#666666"
     borderopacity="1"
     objecttolerance="10"
     gridtolerance="10"
     guidetolerance="10"
     inkscape:pageopacity="0"
     inkscape:pageshadow="2"
     inkscape:window-width="1301"
     inkscape:window-height="744"
     id="namedview3199"
     showgrid="false"
     inkscape:zoom="1.1387141"
     inkscape:cx="289.46931"
     inkscape:cy="199.82542"
     inkscape:window-x="65"
     inkscape:window-y="24"
     inkscape:window-maximized="1"
     inkscape:current-layer="Layer_1" /><g
     id="g3175"
     mask="url(#mask3212)"
     transform="matrix(1.6281311,0,0,0.94915741,-171.38052,23.857931)"
     style="stroke:#0f9f74;stroke-opacity:1;fill:#e6e7ff;fill-opacity:0;opacity:1;stroke-width:0.56309832999999998;stroke-miterlimit:4;stroke-dasharray:none"><defs
       id="defs3177"><rect
         id="SVGID_10_"
         x="71.616997"
         width="422.875"
         height="132.797"
         y="0" /></defs><clipPath
       id="SVGID_1_"><use
         xlink:href="#SVGID_10_"
         overflow="visible"
         id="use3181"
         style="overflow:visible"
         x="0"
         y="0"
         width="573.05701"
         height="149.45" /></clipPath><path
       clip-path="url(#SVGID_1_)"
       d="m 513.29,250.917 c 0,127.16 -103.08,230.24 -230.23,230.24 -127.16,0 -230.24,-103.08 -230.24,-230.24 0,-127.16 103.08,-230.24 230.24,-230.24 127.15,0 230.23,103.08 230.23,230.24 z"
       id="path3183"
       inkscape:connector-curvature="0"
       style="fill:#e6e7ff;stroke:#0f9f74;stroke-width:0.56309832999999998;stroke-linecap:round;stroke-linejoin:round;stroke-opacity:1;fill-opacity:0;stroke-miterlimit:4;stroke-dasharray:none" /><ellipse
       clip-path="url(#SVGID_1_)"
       cx="283.05399"
       cy="250.91701"
       rx="139.151"
       ry="230.24001"
       id="ellipse3185"
       d="m 422.20499,250.91701 c 0,127.15804 -62.30003,230.24 -139.151,230.24 -76.85098,0 -139.15101,-103.08196 -139.15101,-230.24 0,-127.15805 62.30003,-230.240008 139.15101,-230.240008 76.85097,0 139.151,103.081958 139.151,230.240008 z"
       sodipodi:cx="283.05399"
       sodipodi:cy="250.91701"
       sodipodi:rx="139.151"
       sodipodi:ry="230.24001"
       style="fill:#e6e7ff;stroke:#0f9f74;stroke-width:0.56309832999999998;stroke-linecap:round;stroke-linejoin:round;stroke-opacity:1;fill-opacity:0;stroke-miterlimit:4;stroke-dasharray:none" /><path
       clip-path="url(#SVGID_1_)"
       d="m 463.965,250.917 c 0,127.16 -80.99,230.24 -180.905,230.24 -99.912,0 -180.915,-103.08 -180.915,-230.24 0,-127.16 81.003,-230.24 180.915,-230.24 99.915,0 180.905,103.08 180.905,230.24 z"
       id="path3187"
       inkscape:connector-curvature="0"
       style="fill:#e6e7ff;stroke:#0f9f74;stroke-width:0.56309832999999998;stroke-linecap:round;stroke-linejoin:round;stroke-opacity:1;fill-opacity:0;stroke-miterlimit:4;stroke-dasharray:none" /><ellipse
       clip-path="url(#SVGID_1_)"
       cx="283.05399"
       cy="250.91701"
       rx="36.373001"
       ry="230.24001"
       id="ellipse3189"
       d="m 319.42699,250.91701 c 0,127.15804 -16.28475,230.24 -36.373,230.24 -20.08826,0 -36.37301,-103.08196 -36.37301,-230.24 0,-127.15805 16.28475,-230.240008 36.37301,-230.240008 20.08825,0 36.373,103.081958 36.373,230.240008 z"
       sodipodi:cx="283.05399"
       sodipodi:cy="250.91701"
       sodipodi:rx="36.373001"
       sodipodi:ry="230.24001"
       style="fill:#e6e7ff;stroke:#0f9f74;stroke-width:0.56309832999999998;stroke-linecap:round;stroke-linejoin:round;stroke-opacity:1;fill-opacity:0;stroke-miterlimit:4;stroke-dasharray:none" /><ellipse
       clip-path="url(#SVGID_1_)"
       cx="283.05399"
       cy="250.91701"
       rx="90.983002"
       ry="230.24001"
       id="ellipse3191"
       d="m 374.03699,250.91701 c 0,127.15804 -40.73448,230.24 -90.983,230.24 -50.24853,0 -90.98301,-103.08196 -90.98301,-230.24 0,-127.15805 40.73448,-230.240008 90.98301,-230.240008 50.24852,0 90.983,103.081958 90.983,230.240008 z"
       sodipodi:cx="283.05399"
       sodipodi:cy="250.91701"
       sodipodi:rx="90.983002"
       sodipodi:ry="230.24001"
       style="fill:#e6e7ff;stroke:#0f9f74;stroke-width:0.56309832999999998;stroke-linecap:round;stroke-linejoin:round;stroke-opacity:1;fill-opacity:0;stroke-miterlimit:4;stroke-dasharray:none" /><path
       clip-path="url(#SVGID_1_)"
       d="m 283.055,481.152 c -127.16,0 -230.24,-103.08 -230.24,-230.23 0,-127.16 103.08,-230.24 230.24,-230.24 127.159,0 230.239,103.08 230.239,230.24 0,127.15 -103.08,230.23 -230.239,230.23 z"
       id="path3193"
       inkscape:connector-curvature="0"
       style="fill:#e6e7ff;stroke:#0f9f74;stroke-width:0.56309832999999998;stroke-linecap:round;stroke-linejoin:round;stroke-opacity:1;fill-opacity:0;stroke-miterlimit:4;stroke-dasharray:none" /><ellipse
       clip-path="url(#SVGID_1_)"
       cx="283.05499"
       cy="250.91701"
       rx="230.24001"
       ry="139.151"
       id="ellipse3195"
       d="m 513.295,250.91701 c 0,76.85097 -103.08196,139.151 -230.24001,139.151 -127.15804,0 -230.240003,-62.30003 -230.240003,-139.151 0,-76.85098 103.081963,-139.151 230.240003,-139.151 127.15805,0 230.24001,62.30002 230.24001,139.151 z"
       sodipodi:cx="283.05499"
       sodipodi:cy="250.91701"
       sodipodi:rx="230.24001"
       sodipodi:ry="139.151"
       style="fill:#e6e7ff;stroke:#0f9f74;stroke-width:0.56309832999999998;stroke-linecap:round;stroke-linejoin:round;stroke-opacity:1;fill-opacity:0;stroke-miterlimit:4;stroke-dasharray:none" /><path
       clip-path="url(#SVGID_1_)"
       d="m 283.055,431.827 c -127.16,0 -230.24,-80.99 -230.24,-180.905 0,-99.912 103.08,-180.915 230.24,-180.915 127.159,0 230.239,81.003 230.239,180.915 0,99.915 -103.08,180.905 -230.239,180.905 z"
       id="path3197"
       inkscape:connector-curvature="0"
       style="fill:#e6e7ff;stroke:#0f9f74;stroke-width:0.56309832999999998;stroke-linecap:round;stroke-linejoin:round;stroke-opacity:1;fill-opacity:0;stroke-miterlimit:4;stroke-dasharray:none" /></g><path
     style="fill:none;stroke:#0075a9;stroke-width:0.5;stroke-miterlimit:10;marker-start:none;marker-end:none;stroke-opacity:1"
     inkscape:connector-curvature="0"
     stroke-dasharray="300,300"
     stroke-dashoffset="300"
     stroke-miterlimit="10"
     d="m 242.58375,129.1129 c 0,0 -154.740611,-124.2285224 -229.15873,-0.32962"
     id="line1" /><path
     style="fill:none;stroke:#0075a9;stroke-width:0.5;stroke-miterlimit:10"
     inkscape:connector-curvature="0"
     stroke-dasharray="300,300"
     stroke-dashoffset="300"
     stroke-miterlimit="10"
     d="m 242.82418,129.148 c 0,0 -105.21631,-188.76316 -138.70729,-38.126294"
     id="line2" /><path
     style="fill:none;stroke:#0075a9;stroke-width:0.5;stroke-miterlimit:10"
     inkscape:connector-curvature="0"
     stroke-dasharray="300,300"
     stroke-dashoffset="300"
     stroke-miterlimit="10"
     d="m 242.03511,128.10956 c 0,0 -16.56084,-127.0251308 -66.321,-70.228178"
     id="line3" /><path
     style="fill:none;stroke:#0075a9;stroke-width:0.5;stroke-miterlimit:10"
     inkscape:connector-curvature="0"
     stroke-dasharray="300,300"
     stroke-dashoffset="300"
     stroke-miterlimit="10"
     d="m 242.49608,129.10657 c 0,0 18.09205,-160.381065 135.76584,-71.826485"
     id="line4"
     sodipodi:nodetypes="cc" /><path
     id="line5"
     stroke-dasharray="300,300"
     stroke-dashoffset="300"
     style="fill:none;stroke:#0075a9;stroke-width:0.5;stroke-miterlimit:10"
     d="m 242.23608,129.46988 c 0,0 69.43528,-92.023952 157.02913,10.03115" /><circle
     id="circle1"
     cx="14.42664"
     cy="127.22502"
     fill="#0075a9"
     r="2.9698226" /><circle
     id="circle2"
     fill="#0075a9"
     cx="103.42664"
     cy="93.22502"
     r="2.9698226" /><circle
     id="circle3"
     fill="#0075a9"
     cx="376.82664"
     cy="56.22502"
     r="2.9698226" /><circle
     id="circle4"
     fill="#0075a9"
     cx="399.42664"
     cy="140.22502"
     r="2.9698226" /><circle
     id="circle5"
     fill="#0075a9"
     cx="177.47664"
     cy="57.22502"
     r="2.9698226" /><circle
     id="outer-initial-point"
     cx="241.92664"
     cy="129.22502"
     r="8.3155041"
     fill-opacity="0.7"
     fill="white"
     stroke-opacity="0"
     stroke="#000000" /><circle
     id="initial-point"
     fill="#0075a9"
     cx="241.92664"
     cy="129.22502"
     r="2.9698226" /><script
     xlink:href="../js/snap.svg-min.js"
     id="script35"
     type="text/javascript" /><script
     type="text/javascript"
     id="script37">
      var diagramGroup = Snap.select('#Layer_1');
      var initialPoint = diagramGroup.select('#initial-point').attr({r: 0});
      var initialPoint = diagramGroup.select('#outer-initial-point').attr({r: 0});
      for(var i=1;i&lt;=5;i++)
        diagramGroup.select('#circle' + i).attr({r: 0});
      var executeGlobe = function(){
         done=true;
         var diagramGroup = Snap.select('#Layer_1');
         var initialPoint = diagramGroup.select('#initial-point').attr({r: 0});
         var initialPoint = diagramGroup.select('#outer-initial-point').attr({r: 0});
         for(var i=1;i&lt;=5;i++)
          diagramGroup.select('#circle' + i).attr({r: 0});
         diagramGroup.select('#initial-point').animate({r: 2.9698226}, 150, mina.bounce);
         diagramGroup.select('#outer-initial-point').animate({r: 8.3155041}, 500, mina.bounce, function(){
            for(var index=0;index&lt;=4;index++){
               (function(i){
                  diagramGroup.select('#circle'+(i+1)).animate({r:2.9698226}, 500, mina.bounce, function(){
                     diagramGroup.select('#line'+(i+1)).animate({'stroke-dashoffset': 0}, 1000);
                  })
               })(index);
            }  
         });
      }
   </script><script
     type="text/javascript"
     id="script3114">
      var done = false;
      document.execute = function(){
         if(!done)
            executeGlobe();
      }
   </script></svg>