<?xml version="1.0" encoding="UTF-8" standalone="no"?>
<svg
   xmlns:dc="http://purl.org/dc/elements/1.1/"
   xmlns:cc="http://creativecommons.org/ns#"
   xmlns:rdf="http://www.w3.org/1999/02/22-rdf-syntax-ns#"
   xmlns:svg="http://www.w3.org/2000/svg"
   xmlns="http://www.w3.org/2000/svg"
   xmlns:sodipodi="http://sodipodi.sourceforge.net/DTD/sodipodi-0.dtd"
   xmlns:inkscape="http://www.inkscape.org/namespaces/inkscape"
   enable-background="new 0 0 141.732 141.732"
   height="100%"
   id="Livello_1"
   version="1.1"
   viewBox="0 0 73 141.732"
   width="100%"
   xml:space="preserve"
   inkscape:version="0.48.4 r9939"
   sodipodi:docname="key.svg"><metadata
     id="metadata11"><rdf:RDF><cc:Work
         rdf:about=""><dc:format>image/svg+xml</dc:format><dc:type
           rdf:resource="http://purl.org/dc/dcmitype/StillImage" /></cc:Work></rdf:RDF></metadata><defs
     id="defs9" /><sodipodi:namedview
     pagecolor="#ffffff"
     bordercolor="#666666"
     borderopacity="1"
     objecttolerance="10"
     gridtolerance="10"
     guidetolerance="10"
     inkscape:pageopacity="0"
     inkscape:pageshadow="2"
     inkscape:window-width="640"
     inkscape:window-height="480"
     id="namedview7"
     showgrid="false"
     inkscape:zoom="1.6651144"
     inkscape:cx="70.866"
     inkscape:cy="70.866"
     inkscape:window-x="64"
     inkscape:window-y="24"
     inkscape:window-maximized="0"
     inkscape:current-layer="Livello_1" /><g
     id="Livello_43"
     transform="translate(-34,0)"><path
       d="m 82.095,35.352 c 0,6.201 -5.024,11.229 -11.229,11.229 -6.203,0 -11.229,-5.028 -11.229,-11.229 0,-6.201 5.027,-11.23 11.229,-11.23 6.203,-0.001 11.229,5.028 11.229,11.23 m 24.122,0 C 106.217,15.828 90.39,0 70.867,0 51.343,0 35.515,15.828 35.515,35.352 c 0,14.757 9.045,27.397 21.895,32.69 v 20.759 l 11.289,5.645 -11.289,5.646 v 3.24 l 11.289,5.646 -11.289,5.646 v 3.239 l 11.289,5.646 -11.289,5.645 v 1.488 l 13.457,10.783 13.458,-10.783 V 68.043 C 97.172,62.75 106.217,50.109 106.217,35.352"
       id="path4"
       fill="white"
       inkscape:connector-curvature="0" /></g><g
     id="Livello_1_1_" /></svg>