<?xml version="1.0" encoding="utf-8"?>
<!-- Generator: Adobe Illustrator 15.0.0, SVG Export Plug-In . SVG Version: 6.00 Build 0)  -->
<!DOCTYPE svg PUBLIC "-//W3C//DTD SVG 1.1//EN" "http://www.w3.org/Graphics/SVG/1.1/DTD/svg11.dtd">
<svg version="1.1" id="Layer_1" xmlns="http://www.w3.org/2000/svg" xmlns:xlink="http://www.w3.org/1999/xlink" x="0px" y="0px"
	 width="260px" height="50px" viewBox="0 0 306.06 74.352" enable-background="new 0 0 306.06 74.352" xml:space="preserve">
<g>
	<path fill="#FFFFFF" d="M55.008,10c-14.166,0-25.652,11.484-25.652,25.653c0,14.166,11.486,25.652,25.652,25.652
		c14.167,0,25.652-11.486,25.652-25.652C80.661,21.484,69.175,10,55.008,10z M55.008,59.874c-13.379,0-24.222-10.846-24.222-24.221
		c0-13.379,10.843-24.224,24.222-24.224c13.375,0,24.222,10.845,24.222,24.224C79.23,49.028,68.383,59.874,55.008,59.874z"/>
	<path fill="#FFFFFF" d="M65.964,30.956c-0.848,0-1.6,0.434-2.041,1.092l-8.107-2.229c0.021-0.166,0.037-0.334,0.037-0.5
		c0-1.996-1.616-3.612-3.606-3.612c-1.993,0-3.609,1.616-3.609,3.612c0,1.58,1.024,2.925,2.446,3.41l-0.695,4.359
		c-0.353-0.076-0.716-0.119-1.095-0.119c-2.84,0-5.139,2.301-5.139,5.139c0,2.84,2.299,5.141,5.139,5.141
		c2.836,0,5.141-2.301,5.141-5.141c0-0.735-0.158-1.431-0.437-2.064l9.957-5.219c0.443,0.635,1.181,1.051,2.01,1.051
		c1.364,0,2.465-1.102,2.465-2.46C68.429,32.056,67.329,30.956,65.964,30.956z M53.578,39.276c-0.568-0.858-1.384-1.533-2.347-1.925
		l0.71-4.441c0.101,0.009,0.199,0.013,0.306,0.013c1.517,0,2.813-0.935,3.343-2.26l7.982,2.197
		c-0.037,0.176-0.063,0.363-0.063,0.556c0,0.212,0.03,0.417,0.08,0.616L53.578,39.276z"/>
</g>
<g>
	<g>
		<defs>
			<rect id="SVGID_1_" x="99.658" y="17.239" width="186.577" height="36.827"/>
		</defs>
		<clipPath id="SVGID_2_">
			<use xlink:href="#SVGID_1_"  overflow="visible"/>
		</clipPath>
		<path clip-path="url(#SVGID_2_)" fill="#FFFFFF" d="M111.826,43.936c-3.116,1.404-7.642,1.151-9.566-1.25
			c-1.225-1.527-1.298-5.916,3.609-6.913c5.003-1.018,8.301,0,8.301,0S115.094,42.463,111.826,43.936L111.826,43.936z
			 M105.43,25.076c-2.305,0.309-3.757,1.637-3.757,1.637l1.13,1.894c0,0,2.578-2.209,6.997-1.52
			c2.396,0.375,4.138,1.849,4.359,6.498c0,0-13.382-1.849-14.384,4.96c-1.214,8.251,7.289,9.048,11.796,7.627
			c3.293-1.039,4.042-3.369,4.464-5.001c0.644-2.49,0.461-6.378,0.025-9.62C115.875,30.172,115.512,23.729,105.43,25.076
			L105.43,25.076z"/>
	</g>
	<path fill="#FFFFFF" d="M201.315,43.936c-3.115,1.404-7.642,1.151-9.565-1.25c-1.226-1.527-1.298-5.916,3.608-6.913
		c5.004-1.018,8.301,0,8.301,0S204.583,42.463,201.315,43.936L201.315,43.936z M194.919,25.076
		c-2.305,0.309-3.757,1.637-3.757,1.637l1.13,1.894c0,0,2.578-2.209,6.997-1.52c2.396,0.375,4.138,1.849,4.359,6.498
		c0,0-13.382-1.849-14.384,4.96c-1.215,8.251,7.288,9.048,11.795,7.627c3.294-1.039,4.043-3.369,4.465-5.001
		c0.644-2.49,0.461-6.378,0.025-9.62C205.366,30.172,205.001,23.729,194.919,25.076L194.919,25.076z"/>
	<path fill="#FFFFFF" d="M221.449,28.507c0,0-2.757-2.856-6.642-1.315c-1.769,0.701-2.509,2.543-2.151,3.92
		c0.43,1.657,2.077,2.747,4.234,3.314c4.901,1.288,6.206,3.1,6.527,5.401c0.47,3.375-2.188,6.834-6.097,6.851
		c-4.788,0.021-7.55-3.291-7.55-3.291l1.749-1.474c0,0,6.08,5.531,9.544,0.553c0.982-1.411,0.737-4.235-2.731-5.524
		c-3.976-1.478-7.15-2.209-7.825-5.4c-1.217-5.75,6.444-9.023,12.277-4.484L221.449,28.507L221.449,28.507z"/>
	<path fill="#FFFFFF" d="M237.78,26.814c7.608,0.073,6.901,8.47,6.901,8.47h-14.29C230.391,34.18,231.458,26.753,237.78,26.814
		L237.78,26.814z M244.669,43.226c-4.174,2.48-8.693,1.744-10.803,0.455c-3.514-2.148-3.499-6.629-3.499-6.629l16.066,0.016
		c0.184-1.028,0.072-3.226,0-4.297c-0.315-4.669-3.398-7.753-8.615-7.811c-5.586-0.062-8.693,4.235-9.308,8.163
		c-1.169,7.482,1.412,13.504,10.321,13.55c4.705,0.023,6.811-1.761,6.811-1.761L244.669,43.226L244.669,43.226z"/>
	<path fill="#FFFFFF" d="M176.105,44.878c-5.313,0.355-6.53-4.304-6.643-5.299c-0.26-2.315-0.201-6.32-0.141-10.371
		c0,0,1.73-2.434,6.693-2.099c4.095,0.276,6.789,2.829,6.648,8.71C182.541,40.944,181.251,44.535,176.105,44.878L176.105,44.878z
		 M183.665,41.793c1.285-2.936,1.617-8.642-0.31-12.204c-1.52-2.808-4.084-4.498-7.884-4.498c-4.256,0-6.21,1.65-6.21,1.65v-9.134
		h-2.21v9.453c0,4.354,0,10.078,0,10.078c0,2.716,0.824,5.463,2.328,7.182c1.316,1.504,4.119,2.907,8.037,2.256
		C180.839,46.008,182.543,44.356,183.665,41.793L183.665,41.793z"/>
	<path fill="#FFFFFF" d="M137.244,35.894c0.141,5.881-2.554,8.434-6.648,8.71c-4.963,0.335-6.693-2.099-6.693-2.099
		c-0.062-4.051-0.119-8.056,0.141-10.371c0.112-0.995,1.33-5.654,6.643-5.299C135.832,27.178,137.121,30.769,137.244,35.894
		L137.244,35.894z M132.027,25.136c-3.917-0.65-6.69,0.753-8.006,2.256c-1.504,1.719-2.267,4.466-2.267,7.182c0,0,0,5.725,0,10.078
		v9.414h2.209v-9.095c0,0,1.893,1.65,6.149,1.65c3.8,0,6.303-1.69,7.822-4.499c1.927-3.562,1.595-9.268,0.31-12.203
		C137.123,27.356,135.45,25.705,132.027,25.136L132.027,25.136z"/>
	<path fill="#FFFFFF" d="M159.708,35.894c0.141,5.881-2.553,8.434-6.647,8.71c-4.963,0.335-6.693-2.099-6.693-2.099
		c-0.062-4.051-0.12-8.056,0.141-10.371c0.112-0.995,1.33-5.654,6.643-5.299C158.296,27.178,159.585,30.769,159.708,35.894
		L159.708,35.894z M154.491,25.136c-3.917-0.65-6.69,0.753-8.006,2.256c-1.504,1.719-2.267,4.466-2.267,7.182c0,0,0,5.725,0,10.078
		v9.414h2.21v-9.095c0,0,1.893,1.65,6.148,1.65c3.8,0,6.304-1.69,7.822-4.499c1.927-3.562,1.596-9.268,0.311-12.203
		C159.587,27.356,157.915,25.705,154.491,25.136L154.491,25.136z"/>
	<polygon fill="#FFFFFF" points="261.329,17.239 261.329,21.29 259.856,21.29 259.856,17.239 261.329,17.239 	"/>
	<polygon fill="#FFFFFF" points="253.963,42.65 253.963,46.701 252.491,46.701 252.491,42.65 253.963,42.65 	"/>
	<polygon fill="#FFFFFF" points="259.856,24.973 259.856,46.701 261.329,46.701 261.329,24.973 259.856,24.973 	"/>
	<path fill="#FFFFFF" d="M276.476,45.074c-4.604,0-8.335-4.129-8.335-9.222c0-5.094,3.73-9.223,8.335-9.223
		c4.603,0,8.335,4.129,8.335,9.223C284.811,40.945,281.079,45.074,276.476,45.074L276.476,45.074z M276.476,24.971
		c-5.39,0-9.76,4.834-9.76,10.797s4.37,10.798,9.76,10.798c5.388,0,9.759-4.835,9.759-10.798S281.864,24.971,276.476,24.971
		L276.476,24.971z"/>
</g>
</svg>
