<?xml version="1.0" encoding="utf-8"?>
<!DOCTYPE svg PUBLIC "-//W3C//DTD SVG 1.1//EN" "http://www.w3.org/Graphics/SVG/1.1/DTD/svg11.dtd">
<svg version="1.1" id="Layer_1" xmlns="http://www.w3.org/2000/svg" xmlns:xlink="http://www.w3.org/1999/xlink" x="0px" y="0px"
	 width="100%" height="100%" viewBox="0 0 1626.757 1311" enable-background="new 0 0 1626.757 1311" xml:space="preserve">
<g>
	<path opacity="0.4" fill="#010101" d="M1305.469,1185.057c0,27.617-220.444,50.01-492.375,50.01
		c-271.932,0-492.375-22.393-492.375-50.01c0-27.625,220.443-50.01,492.375-50.01
		C1085.024,1135.047,1305.469,1157.432,1305.469,1185.057z"/>
	<path opacity="0.4" fill="#010101" d="M1200.315,1180.728c0,16.836-172.954,30.487-386.3,30.487
		c-213.349,0-386.301-13.651-386.301-30.487c0-16.843,172.952-30.489,386.301-30.489
		C1027.361,1150.238,1200.315,1163.885,1200.315,1180.728z"/>
</g>
<g>
	<path fill="#212121" d="M626.584,1174.363c-52.829,0-95.668-43.697-95.668-97.613V144.205c0-53.893,42.839-97.58,95.668-97.58
		h381.1c52.828,0,95.68,43.688,95.68,97.58v932.545c0,53.916-42.852,97.613-95.68,97.613H626.584z"/>
	<path fill="none" stroke="#010101" stroke-miterlimit="10" d="M626.584,1174.363c-52.829,0-95.668-43.697-95.668-97.613V144.205
		c0-53.893,42.839-97.58,95.668-97.58h381.1c52.828,0,95.68,43.688,95.68,97.58v932.545c0,53.916-42.852,97.613-95.68,97.613
		H626.584z"/>
</g>
<path fill="#1A1A1A" stroke="#010101" stroke-miterlimit="10" d="M631.326,1166.723c-51.514,0-93.293-43.124-93.293-96.327V150.125
	c0-53.182,41.779-96.295,93.293-96.295h371.618c51.517,0,93.301,43.113,93.301,96.295v920.271c0,53.203-41.784,96.327-93.301,96.327
	H631.326z"/>
<path opacity="0.2" fill="#807F7F" d="M831.186,1061.943c0-2.844-2.313-5.152-5.156-5.152h-19.658c-2.855,0-5.158,2.309-5.158,5.152
	v19.684c0,2.823,2.303,5.15,5.158,5.15h19.658c2.844,0,5.156-2.327,5.156-5.15V1061.943z"/>
<rect x="572.744" y="209.313" fill="#FFFFFF" width="486.902" height="765.693"/>
<g>
	
		
	<g>
		<path fill="#FFFFFF" d="M724.198,121.225c-8.085,0-14.64,6.552-14.64,14.639c0,8.065,6.555,14.617,14.64,14.617
			c8.062,0,14.615-6.552,14.615-14.617C738.813,127.776,732.26,121.225,724.198,121.225z"/>
		<path fill="none" stroke="#010101" stroke-miterlimit="10" d="M724.198,121.225c-8.085,0-14.64,6.552-14.64,14.639
			c0,8.065,6.555,14.617,14.64,14.617c8.062,0,14.615-6.552,14.615-14.617C738.813,127.776,732.26,121.225,724.198,121.225z"/>
	</g>
</g>
<g>
	
		
	<g>
		<path fill="#FFFFFF" d="M877.701,134.463c0,10.176-9.84,11.707-11.705,11.707h-83.529c-6.441,0-11.693-5.244-11.693-11.707
			c0-6.441,5.252-11.684,11.693-11.684c-1.842,0,2.266,0,4.397,0c1.844,0,12.373,0,14.216,0c-2.751,0,14.931,0,17.773,0
			c2.777,0,9.332,0,12.087,0l36.832,0.154C876.262,124.201,877.701,132.611,877.701,134.463"/>
		<path fill="none" stroke="#010101" stroke-miterlimit="10" d="M877.701,134.463c0,10.176-9.84,11.707-11.705,11.707h-83.529
			c-6.441,0-11.693-5.244-11.693-11.707c0-6.441,5.252-11.684,11.693-11.684c-1.842,0,2.266,0,4.397,0c1.844,0,12.373,0,14.216,0
			c-2.751,0,14.931,0,17.773,0c2.777,0,9.332,0,12.087,0l36.832,0.154C876.262,124.201,877.701,132.611,877.701,134.463"/>
	</g>
</g>
<g>
	<g opacity="0.5">
		
		
		<g>
			<circle fill="#010101" cx="815.803" cy="1071.166" r="47.81"/>
		</g>
	</g>
	<g>
		<path fill="none" stroke="#333333" stroke-width="2" stroke-miterlimit="10" d="M833.5,1084c0,2.762-2.239,5-5,5h-25
			c-2.761,0-5-2.238-5-5v-25c0-2.762,2.239-5,5-5h25c2.761,0,5,2.238,5,5V1084z"/>
	</g>
</g>
<g opacity="0.6">
	<path fill="#E4E4E5" d="M1058.833,971.007c0,2.2-1.8,4-4,4H576.922c-2.2,0-4-1.8-4-4V213.446c0-2.2,1.8-4,4-4h477.911
		c2.2,0,4,1.8,4,4V971.007z"/>
</g>
<g>
	<path fill="none" d="M1059.646,971.007c0,2.2-1.8,4-4,4H576.922c-2.2,0-4-1.8-4-4V213.446c0-2.2,1.8-4,4-4h478.725c2.2,0,4,1.8,4,4
		V971.007z"/>
</g>
<path opacity="0.4" fill="#010101" d="M594.232,1121.95"/>
<path opacity="0.3" fill="#807F7F" d="M666.611,51h-54.387c0,0-59.092,14.948-76.682,76.04c-17.592,61.09,0,967.081,0,967.081
	S545.527,1179,631.211,1179s392.797,0,392.797,0s83.281-7.873,83.281-98.051s0,0,0,0L666.611,51z"/>
<g opacity="0.6">
	<rect x="572.963" y="209.379" fill="#F1F2F2" width="485.912" height="765.561"/>
	<rect x="572.963" y="209.379" fill="none" stroke="#404040" stroke-miterlimit="10" width="485.912" height="765.561"/>
</g>
<g opacity="0.9">
	
		
	<g>
		<linearGradient id="SVGID_1_" gradientUnits="userSpaceOnUse" x1="815.8354" y1="348.9531" x2="815.8354" y2="271.0283">
			<stop  offset="0" style="stop-color:#DEDEDE"/>
			<stop  offset="0.1496" style="stop-color:#A6A6A6;stop-opacity:0.9701"/>
			<stop  offset="0.305" style="stop-color:#747474;stop-opacity:0.939"/>
			<stop  offset="0.4588" style="stop-color:#4A4A4A;stop-opacity:0.9082"/>
			<stop  offset="0.6077" style="stop-color:#2A2A2A;stop-opacity:0.8785"/>
			<stop  offset="0.7504" style="stop-color:#131313;stop-opacity:0.8499"/>
			<stop  offset="0.8841" style="stop-color:#050505;stop-opacity:0.8232"/>
			<stop  offset="1" style="stop-color:#000000;stop-opacity:0.8"/>
		</linearGradient>
		<rect x="573.76" y="271.028" fill="url(#SVGID_1_)" width="484.152" height="77.925"/>
		
			<rect x="573.76" y="271.028" fill="none" stroke="#939598" stroke-width="0.5" stroke-miterlimit="10" width="484.152" height="77.925"/>
	</g>
</g>
<g>
	<polyline fill="#FFFFFF" points="1057.912,269.43 1057.912,209.379 574.131,209.379 574.131,270.734 	"/>
</g>
<g>
	<path fill="#BCBEC0" d="M791.55,241.691c0,8.674-7.028,15.705-15.702,15.705c-8.678,0-15.706-7.031-15.706-15.705
		s7.028-15.703,15.706-15.703C784.521,225.988,791.55,233.018,791.55,241.691z"/>
	<path fill="#BCBEC0" d="M833.945,241.691c0,8.674-7.031,15.705-15.699,15.705c-8.68,0-15.706-7.031-15.706-15.705
		s7.026-15.703,15.706-15.703C826.914,225.988,833.945,233.018,833.945,241.691z"/>
	<path fill="#BCBEC0" d="M876.342,241.691c0,8.674-7.027,15.705-15.701,15.705c-8.676,0-15.705-7.031-15.705-15.705
		s7.029-15.703,15.705-15.703C869.314,225.988,876.342,233.018,876.342,241.691z"/>
</g>
<polygon fill="#939598" points="586.821,255.76 586.821,245.992 636.686,224.354 636.686,255.76 "/>
<rect x="989.768" y="231.756" fill="#A7A9AC" width="41.41" height="22.583"/>
<rect x="1029.389" y="236.231" fill="#A7A9AC" width="6.83" height="13.632"/>
<g opacity="0.9">
	
		
	<g>
		<g>
			<path fill="#FFFFFF" stroke="#010101" stroke-width="0.75" stroke-miterlimit="10" d="M969.623,341.287l-1.58-0.024l1.177-1.062
				c0.039-0.033,3.855-3.529,4.567-9.436c-5.148-3.203-8.092-7.887-8.092-12.905c0-9.261,10.093-16.793,22.496-16.793
				c0.39,0,0.775,0.007,1.16,0.021c11.962,0.452,21.336,7.82,21.336,16.772c0,2.087-0.511,4.13-1.517,6.067
				c-3.377,6.516-11.612,10.729-20.979,10.729c-1.546,0-3.106-0.124-4.64-0.367c-1.559,2.792-5.284,7.003-13.523,7.003
				C969.896,341.293,969.759,341.289,969.623,341.287z"/>
			<g>
				<path fill="#010101" stroke="#FFFFFF" stroke-width="0.75" stroke-miterlimit="10" d="M1026.125,318.633
					c4.957-2.963,8.133-7.496,8.133-12.576c0-8.934-9.791-16.174-21.873-16.174c-8.691,0-15.688,3.387-19.213,8.818
					c11.98,0.708,20.768,8.601,20.768,17.722c0,1.986-0.445,3.935-1.316,5.798c1.628-0.014,3.213-0.158,4.738-0.42
					c1.475,2.873,5.101,7.197,13.577,7.061C1030.938,328.861,1026.744,325.109,1026.125,318.633z"/>
			</g>
		</g>
	</g>
</g>
<g>
	
		
	<g>
		<polygon fill="#E6E7E8" points="615.862,295.34 677,295.34 677,328.864 615.862,328.864 596.587,312.102 		"/>
		<polygon fill="none" stroke="#F1F2F2" stroke-width="0.5" stroke-miterlimit="10" points="615.862,295.34 677,295.34 677,328.864 
			615.862,328.864 596.587,312.102 		"/>
	</g>
</g>
<rect x="572.879" y="931.313" opacity="0.5" width="485.914" height="43.627"/>
<linearGradient id="SVGID_2_" gradientUnits="userSpaceOnUse" x1="815.9194" y1="931.3125" x2="815.9194" y2="974.9395">
	<stop  offset="0" style="stop-color:#DEDEDE"/>
	<stop  offset="0.1933" style="stop-color:#A2A2A2;stop-opacity:0.9613"/>
	<stop  offset="0.4003" style="stop-color:#696969;stop-opacity:0.9199"/>
	<stop  offset="0.592" style="stop-color:#3B3B3B;stop-opacity:0.8816"/>
	<stop  offset="0.7619" style="stop-color:#1B1B1B;stop-opacity:0.8476"/>
	<stop  offset="0.9037" style="stop-color:#070707;stop-opacity:0.8193"/>
	<stop  offset="1" style="stop-color:#000000;stop-opacity:0.8"/>
</linearGradient>
<rect x="572.963" y="931.313" fill="url(#SVGID_2_)" width="485.912" height="43.627"/>
<circle fill="#EE6A5A" stroke="#FFFFFF" stroke-width="0.5" stroke-miterlimit="10" cx="1032.818" cy="294.829" r="11.901"/>
<polyline fill="none" stroke="#FFFFFF" stroke-miterlimit="10" points="668.236,237.998 662.906,244.814 657.439,237.998 "/>
<g id="all-profiles">
	<g id="red-profile">
		<g>
			<path fill="#F38C87" d="M662.838,453.378c0,0.55-0.45,1-1,1h-71.334c-0.55,0-1-0.45-1-1v-71.333c0-0.55,0.45-1,1-1h71.334
				c0.55,0,1,0.45,1,1V453.378z"/>
		</g>
		<g>
			<path fill="#EE6A5A" d="M662.838,454.378h-72.334c-0.55,0-1-0.45-1-1v-72.333"/>
		</g>
		<path fill="#FFFFFF" d="M605.749,431.178c0,0,0.372-14.01,13.771-16.571c0,0,5.948,6.827,7.274,10.579v-5.396l-1.405,0.067
			l0.031-1.938h6.491l-0.021,1.938l-1.183-0.038l-0.073,5.61c0,0,7.45-10.51,8.365-10.543c0.994,0.277,12.02,3.037,12.57,16.291
			c0,0-6.475,14.148-22.909,13.482C612.224,444,605.749,431.178,605.749,431.178z"/>
		<path fill="#FFFFFF" d="M617.516,401.678c0,7.387,6.709,13.369,10.993,13.369c4.333,0,10.993-5.982,10.993-13.369v0.105
			c0-7.438-4.925-13.471-10.993-13.471c-6.069,0-10.993,6.032-10.993,13.471V401.678z"/>
		<path fill="#E6E7E8" d="M605.749,431.178c0,0,0.372-14.01,13.771-16.571c0,0,5.948,6.827,7.274,10.579v-5.396l-1.405,0.067
			l0.031-1.938h2.158c0,0,6.952,26.761,1.083,26.74C612.224,444,605.749,431.178,605.749,431.178z"/>
		<path fill="#FFFFFF" d="M617.516,401.783c0-0.021,0.002-0.039,0.002-0.061c0-0.014-0.002-0.027-0.002-0.045V401.783z"/>
		<path fill="#E6E7E8" d="M628.509,388.313c-6.053,0-10.964,6.003-10.991,13.41c0.027,7.365,6.719,13.324,10.991,13.324l0,0V388.313
			L628.509,388.313z"/>
		<path fill="#FFFFFF" d="M639.502,401.678c0,0.018-0.003,0.031-0.003,0.045c0,0.021,0.003,0.04,0.003,0.061V401.678z"/>
		<rect x="690.654" y="405.328" opacity="0.3" fill="#808285" width="203.512" height="49.05"/>
		<rect x="690.654" y="381.045" fill="#808285" width="93.512" height="14.011"/>
	</g>
	<g id="blue-profile">
		<path fill="#0398CC" d="M662.838,556.217c0,0.55-0.45,1-1,1h-71.334c-0.55,0-1-0.45-1-1v-71.333c0-0.55,0.45-1,1-1h71.334
				c0.55,0,1,0.45,1,1V556.217z"/>
		<path fill="#0075A9" d="M662.838,557.217h-72.334c-0.55,0-1-0.45-1-1v-72.333"/>
		<path fill="#FFFFFF" d="M605.749,534.017c0,0,0.372-14.011,13.771-16.571c0,0,5.948,6.827,7.274,10.579v-5.396l-1.405,0.067
			l0.031-1.938h6.491l-0.021,1.938l-1.183-0.038l-0.073,5.61c0,0,7.45-10.51,8.365-10.543c0.994,0.277,12.02,3.037,12.57,16.291
			c0,0-6.475,14.149-22.909,13.483C612.224,546.839,605.749,534.017,605.749,534.017z"/>
		<path fill="#FFFFFF" d="M617.516,504.517c0,7.387,6.709,13.369,10.993,13.369c4.333,0,10.993-5.982,10.993-13.369v0.105
			c0-7.438-4.925-13.471-10.993-13.471c-6.069,0-10.993,6.032-10.993,13.471V504.517z"/>
		<path fill="#E6E7E8" d="M605.749,534.017c0,0,0.372-14.011,13.771-16.571c0,0,5.948,6.827,7.274,10.579v-5.396l-1.405,0.067
			l0.031-1.938h2.158c0,0,6.952,26.761,1.083,26.741C612.224,546.839,605.749,534.017,605.749,534.017z"/>
		<path fill="#FFFFFF" d="M617.516,504.622c0-0.021,0.002-0.038,0.002-0.061c0-0.015-0.002-0.027-0.002-0.045V504.622z"/>
		<path fill="#E6E7E8" d="M628.509,491.151c-6.053,0-10.964,6.003-10.991,13.41c0.027,7.365,6.719,13.324,10.991,13.324l0,0V491.151
			L628.509,491.151z"/>
		<path fill="#FFFFFF" d="M639.502,504.517c0,0.018-0.003,0.03-0.003,0.045c0,0.022,0.003,0.04,0.003,0.061V504.517z"/>
		<rect x="690.654" y="508.27" opacity="0.3" fill="#808285" width="141.512" height="49.05"/>
		<rect x="690.654" y="484.146" fill="#808285" width="169.512" height="14.011"/>
	</g>
	<g id="brown-profile">
		<path id="brown-change1" fill="#B5A39A" d="M662.838,659.056c0,0.55-0.45,1-1,1h-71.334c-0.55,0-1-0.45-1-1v-71.333c0-0.55,0.45-1,1-1h71.334
			c0.55,0,1,0.45,1,1V659.056z"/>
		<path id="brown-change2" fill="#9B8579" d="M662.838,660.056h-72.334c-0.55,0-1-0.45-1-1v-72.333"/>
		<path fill="#FFFFFF" d="M605.749,636.855c0,0,0.372-14.011,13.771-16.571c0,0,5.948,6.827,7.274,10.579v-5.396l-1.405,0.067
			l0.031-1.938h6.491l-0.021,1.938l-1.183-0.038l-0.073,5.61c0,0,7.45-10.51,8.365-10.543c0.994,0.277,12.02,3.037,12.57,16.291
			c0,0-6.475,14.148-22.909,13.482C612.224,649.678,605.749,636.855,605.749,636.855z"/>
		<path fill="#FFFFFF" d="M617.516,607.355c0,7.387,6.709,13.369,10.993,13.369c4.333,0,10.993-5.982,10.993-13.369v0.105
			c0-7.438-4.925-13.471-10.993-13.471c-6.069,0-10.993,6.032-10.993,13.471V607.355z"/>
		<path fill="#E6E7E8" d="M605.749,636.855c0,0,0.372-14.011,13.771-16.571c0,0,5.948,6.827,7.274,10.579v-5.396l-1.405,0.067
			l0.031-1.938h2.158c0,0,6.952,26.761,1.083,26.74C612.224,649.678,605.749,636.855,605.749,636.855z"/>
		<path fill="#FFFFFF" d="M617.516,607.461c0-0.021,0.002-0.039,0.002-0.061c0-0.015-0.002-0.027-0.002-0.045V607.461z"/>
		<path fill="#E6E7E8" d="M628.509,593.99c-6.053,0-10.964,6.003-10.991,13.41c0.027,7.365,6.719,13.324,10.991,13.324l0,0V593.99
			L628.509,593.99z"/>
		<path fill="#FFFFFF" d="M639.502,607.355c0,0.018-0.003,0.03-0.003,0.045c0,0.021,0.003,0.04,0.003,0.061V607.355z"/>
		<rect id="brown-change3" x="690.654" y="587.248" fill="#808285" width="64.931" height="14.011"/>
		<rect id="brown-change4" x="690.654" y="610.786" opacity="0.3" fill="#808285" width="179.846" height="49.05"/>

	</g>
	<g id="green-profile">
		<path id="green-change1" fill="#71B7AE" d="M662.838,761.895c0,0.55-0.45,1-1,1h-71.334c-0.55,0-1-0.45-1-1v-71.333c0-0.55,0.45-1,1-1h71.334
				c0.55,0,1,0.45,1,1V761.895z"/>
		<path id="green-change2" fill="#5B9993" d="M662.838,762.895h-72.334c-0.55,0-1-0.45-1-1v-72.333"/>
		<path fill="#FFFFFF" d="M605.749,739.694c0,0,0.372-14.011,13.771-16.571c0,0,5.948,6.827,7.274,10.579v-5.396l-1.405,0.068
			l0.031-1.938h6.491l-0.021,1.938l-1.183-0.039l-0.073,5.61c0,0,7.45-10.51,8.365-10.543c0.994,0.277,12.02,3.037,12.57,16.291
			c0,0-6.475,14.148-22.909,13.482C612.224,752.517,605.749,739.694,605.749,739.694z"/>
		<path fill="#FFFFFF" d="M617.516,710.194c0,7.387,6.709,13.369,10.993,13.369c4.333,0,10.993-5.982,10.993-13.369v0.105
			c0-7.438-4.925-13.471-10.993-13.471c-6.069,0-10.993,6.032-10.993,13.471V710.194z"/>
		<path fill="#E6E7E8" d="M605.749,739.694c0,0,0.372-14.011,13.771-16.571c0,0,5.948,6.827,7.274,10.579v-5.396l-1.405,0.068
			l0.031-1.938h2.158c0,0,6.952,26.761,1.083,26.74C612.224,752.517,605.749,739.694,605.749,739.694z"/>
		<path fill="#FFFFFF" d="M617.516,710.3c0-0.021,0.002-0.039,0.002-0.061c0-0.015-0.002-0.027-0.002-0.045V710.3z"/>
		<path fill="#E6E7E8" d="M628.509,696.829c-6.053,0-10.964,6.003-10.991,13.41c0.027,7.365,6.719,13.324,10.991,13.324l0,0V696.829
			L628.509,696.829z"/>
		<path fill="#FFFFFF" d="M639.502,710.194c0,0.018-0.003,0.03-0.003,0.045c0,0.021,0.003,0.04,0.003,0.061V710.194z"/>
		<rect id="green-change3" x="690.654" y="690.35" fill="#808285" width="129.862" height="14.011"/>
		<rect id="green-change4" x="690.654" y="713.636" opacity="0.3" fill="#808285" width="248.286" height="49.05"/>
	</g>
	<g id="purple-profile">
		<path fill="#A484A5" d="M662.838,864.733c0,0.55-0.45,1-1,1h-71.334c-0.55,0-1-0.45-1-1V793.4c0-0.55,0.45-1,1-1h71.334
			c0.55,0,1,0.45,1,1V864.733z"/>
		<path fill="#8C5A8C" d="M662.838,865.733h-72.334c-0.55,0-1-0.45-1-1V792.4"/>
		<path fill="#FFFFFF" d="M605.749,842.533c0,0,0.372-14.011,13.771-16.571c0,0,5.948,6.827,7.274,10.579v-5.396l-1.405,0.067
			l0.031-1.938h6.491l-0.021,1.938l-1.183-0.038l-0.073,5.61c0,0,7.45-10.51,8.365-10.543c0.994,0.277,12.02,3.037,12.57,16.291
			c0,0-6.475,14.148-22.909,13.482C612.224,855.355,605.749,842.533,605.749,842.533z"/>
		<path fill="#FFFFFF" d="M617.516,813.033c0,7.387,6.709,13.369,10.993,13.369c4.333,0,10.993-5.982,10.993-13.369v0.105
			c0-7.438-4.925-13.471-10.993-13.471c-6.069,0-10.993,6.032-10.993,13.471V813.033z"/>
		<path fill="#E6E7E8" d="M605.749,842.533c0,0,0.372-14.011,13.771-16.571c0,0,5.948,6.827,7.274,10.579v-5.396l-1.405,0.067
			l0.031-1.938h2.158c0,0,6.952,26.761,1.083,26.74C612.224,855.355,605.749,842.533,605.749,842.533z"/>
		<path fill="#FFFFFF" d="M617.516,813.139c0-0.021,0.002-0.039,0.002-0.061c0-0.015-0.002-0.027-0.002-0.045V813.139z"/>
		<path fill="#E6E7E8" d="M628.509,799.668c-6.053,0-10.964,6.003-10.991,13.41c0.027,7.365,6.719,13.324,10.991,13.324l0,0V799.668
			L628.509,799.668z"/>
		<path fill="#FFFFFF" d="M639.502,813.033c0,0.018-0.003,0.03-0.003,0.045c0,0.021,0.003,0.04,0.003,0.061V813.033z"/>
		<rect x="690.654" y="793.451" fill="#808285" width="175.512" height="14.011"/>
		<rect x="690.654" y="816.464" opacity="0.3" fill="#808285" width="124.143" height="49.05"/>
	</g>
	<g id="yellow-profile">
		<defs>
			<rect id="SVGID_45_" x="589.504" y="896.553" width="73.334" height="34.76"/>
		</defs>
		<clipPath id="SVGID_3_">
			<use xlink:href="#SVGID_45_"  overflow="visible"/>
		</clipPath>
		<g clip-path="url(#SVGID_3_)">
			<path fill="#F8BD6D" d="M662.838,968.886c0,0.55-0.45,1-1,1h-71.334c-0.55,0-1-0.45-1-1v-71.333c0-0.55,0.45-1,1-1h71.334
					c0.55,0,1,0.45,1,1V968.886z"/>
			<path fill="#E8A752" d="M662.838,969.886h-72.334c-0.55,0-1-0.45-1-1v-72.333"/>
			<path fill="#FFFFFF" d="M605.749,946.686c0,0,0.372-14.011,13.771-16.571c0,0,5.948,6.827,7.274,10.579v-5.396l-1.405,0.067
				l0.031-1.938h6.491l-0.021,1.938l-1.183-0.038l-0.073,5.61c0,0,7.45-10.51,8.365-10.543c0.994,0.277,12.02,3.037,12.57,16.291
				c0,0-6.475,14.148-22.909,13.482C612.224,959.508,605.749,946.686,605.749,946.686z"/>
			<path fill="#FFFFFF" d="M617.516,917.186c0,7.387,6.709,13.369,10.993,13.369c4.333,0,10.993-5.982,10.993-13.369v0.105
				c0-7.438-4.925-13.471-10.993-13.471c-6.069,0-10.993,6.032-10.993,13.471V917.186z"/>
			<path fill="#E6E7E8" d="M605.749,946.686c0,0,0.372-14.011,13.771-16.571c0,0,5.948,6.827,7.274,10.579v-5.396l-1.405,0.067
				l0.031-1.938h2.158c0,0,6.952,26.761,1.083,26.74C612.224,959.508,605.749,946.686,605.749,946.686z"/>
			<path fill="#FFFFFF" d="M617.516,917.291c0-0.021,0.002-0.039,0.002-0.061c0-0.015-0.002-0.027-0.002-0.045V917.291z"/>
			<path fill="#E6E7E8" d="M628.509,903.82c-6.053,0-10.964,6.003-10.991,13.41c0.027,7.365,6.719,13.324,10.991,13.324l0,0V903.82
				L628.509,903.82z"/>
			<path fill="#FFFFFF" d="M639.502,917.186c0,0.018-0.003,0.03-0.003,0.045c0,0.021,0.003,0.04,0.003,0.061V917.186z"/>
		</g>
		<rect x="690.654" y="896.553" fill="#808285" width="92.846" height="14.011"/>
		<rect x="690.654" y="920.464" opacity="0.3" fill="#808285" width="169.512" height="10.849"/>
	</g>
	<g id="updates">
		<!-- <rect id="update-part1" x="699.093" y="411.609" opacity="0.6" fill="#4096AD" width="14.74" height="15.248"/>
		<rect id="update-part2" x="716.585" y="411.609" opacity="0.6" fill="#4096AD" width="34.582" height="15.248"/>
		<rect id="update-part3" x="758.13" y="433.877" opacity="0.6" fill="#4096AD" width="14.74" height="15.248"/>
		<rect id="update-part4" x="775.41" y="433.877" opacity="0.6" fill="#4096AD" width="34.983" height="15.248"/>
		<rect id="update-part5" x="699.093" y="536.304" opacity="0.6" fill="#4096AD" width="14.74" height="15.248"/>
		<rect id="update-part6" x="716.585" y="536.304" opacity="0.6" fill="#4096AD" width="34.983" height="15.248"/>
		<rect id="update-part7" x="699.093" y="638.731" opacity="0.6" fill="#4096AD" width="14.74" height="15.248"/>
		<rect id="update-part8" x="715.413" y="638.731" opacity="0.6" fill="#4096AD" width="34.983" height="15.248"/>
		<rect id="update-part9" x="801.576" y="615.765" opacity="0.6" fill="#4096AD" width="14.74" height="15.248"/>
		<rect id="update-part10" x="817.907" y="615.765" opacity="0.6" fill="#4096AD" width="34.983" height="15.248"/>
		<rect id="update-part11" x="864.085" y="638.731" opacity="0.6" fill="#4096AD" width="14.74" height="15.248"/>
		<rect id="update-part12" x="880.712" y="638.731" opacity="0.6" fill="#4096AD" width="34.983" height="15.248"/>
		<rect id="update-part13" x="727.093" y="738.161" opacity="0.6" fill="#4096AD" width="14.74" height="15.248"/>
		<rect id="update-part14" x="743.747" y="738.161" opacity="0.6" fill="#4096AD" width="34.983" height="15.248"/> -->
		<rect id="update-part1" x="699.582" y="410.362" opacity="0.6" fill="#4096AD" width="17.291" height="15.248"/>
		<rect id="update-part2" x="720.119" y="410.362" opacity="0.6" fill="#4096AD" width="42.82" height="15.248"/>
		<rect id="update-part3" x="766.119" y="410.362" opacity="0.6" fill="#4096AD" width="60.82" height="15.248"/>
		<rect id="update-part4" x="699.261" y="538.029" opacity="0.6" fill="#4096AD" width="17.291" height="15.248"/>
		<rect id="update-part5" x="719.798" y="538.029" opacity="0.6" fill="#4096AD" width="42.82" height="15.248"/>
		<rect id="update-part6" x="765.798" y="538.029" opacity="0.6" fill="#4096AD" width="60.82" height="15.248"/>
		<rect id="update-part7" x="758.261" y="615.766" opacity="0.6" fill="#4096AD" width="17.291" height="15.248"/>
		<rect id="update-part8" x="778.798" y="615.766" opacity="0.6" fill="#4096AD" width="42.82" height="15.248"/>
		<rect id="update-part9" x="824.798" y="615.766" opacity="0.6" fill="#4096AD" width="60.82" height="15.248"/>
		<rect id="update-part10" x="694.582" y="742.766" opacity="0.6" fill="#4096AD" width="17.291" height="15.248"/>
		<rect id="update-part11" x="715.119" y="742.766" opacity="0.6" fill="#4096AD" width="42.82" height="15.248"/>
		<rect id="update-part12" x="761.119" y="742.766" opacity="0.6" fill="#4096AD" width="60.82" height="15.248"/>
	</g>
</g>
<rect id="loading1" x="604.093" y="434.337" opacity="0.8" width="70.821" height="74.389"/>
<rect id="loading2" x="687.972" y="434.337" opacity="0.8" width="126.853" height="74.389"/>
<rect id="loading3" x="828.697" y="434.337" opacity="0.8" width="200.691" height="74.389"/>
<g>		
	<g>
		<path fill="#FFFFFF" d="M938.939,332.024c0,0.55-0.45,1-1,1H703.092c-0.549,0-1-0.45-1-1v-41.142c0-0.549,0.451-1,1-1h234.848
			c0.55,0,1,0.451,1,1V332.024z"/>
	</g>
</g>
<g id="Your_Icon_30_">	
	<g>
		<g>
			<g>
				<g>
					<path fill="#414042" d="M921.899,314.578l-0.369-0.369c-0.039-0.039-0.081-0.075-0.122-0.112
						c0.949-1.626,1.497-3.513,1.497-5.531c0-6.063-4.914-10.978-10.978-10.978c-6.063,0-10.977,4.914-10.977,10.978
						c0,6.06,4.914,10.978,10.977,10.978c2.006,0,3.884-0.541,5.502-1.479c0.038,0.042,0.076,0.087,0.117,0.129l0.384,0.385
						c0.729-0.449,1.669-1.08,2.271-1.682C920.84,316.256,921.479,315.28,921.899,314.578z M911.92,316.23
						c-4.234,0-7.666-3.432-7.666-7.666s3.432-7.666,7.666-7.666s7.666,3.432,7.666,7.666S916.154,316.23,911.92,316.23z
						 M929.349,322.025l-6.702-6.701c-0.281,0.56-0.801,1.33-1.762,2.291c-0.912,0.912-1.648,1.424-2.202,1.715l6.667,6.666
						c0.579-0.616,1.363-1.443,1.97-2.049C927.954,323.313,928.771,322.553,929.349,322.025z M930.068,323
						c-0.341,0.5-0.886,1.172-1.757,2.043c-0.818,0.82-1.465,1.352-1.955,1.695c1.036,0.461,2.294,0.271,3.144-0.578
						C930.354,325.305,930.541,324.039,930.068,323z"/>
				</g>
			</g>
		</g>
	</g>
</g>
<rect x="1048.833" y="456.328" fill="#BCBEC0" width="9.079" height="66.065"/>
<line id="cursor" fill="none" stroke="#58595B" stroke-width="3" stroke-miterlimit="10" x1="856.829" y1="295.34" x2="856.829" y2="326.982">
	<animate attributeName="opacity" from="0" to="1" begin="0" dur="0.7" repeatCount="indefinite"></animate>
</line>
<rect id="text1" x="709.56" y="321.18" fill="#58595B" width="14.627" height="5.803"/>
<rect id="text2" x="729.329" y="321.18" fill="#58595B" width="46.518" height="5.803"/>
<rect id="text3" x="781.765" y="321.18" fill="#58595B" width="70.063" height="5.803"/>
<g>
	<g id="right-signal">
		<g id="rs1">
			<path opacity="0.7" fill="#010101" d="M1300.5,499.547l-50.856,20.96c9.03,20.551,14.053,43.245,14.053,67.096
				c0,21.632-4.14,42.31-11.649,61.304l51.46,19.431c9.806-25.036,15.21-52.261,15.21-80.734
				C1318.717,556.331,1312.207,526.56,1300.5,499.547z"/>
			<path opacity="0.9" fill="#010101" d="M1243.845,417.986c-13.735,10.094-31.276,22.985-47.894,35.197
				c23.262,17.298,41.898,40.48,53.692,67.323l50.856-20.96C1289.859,474.997,1264.834,436,1243.845,417.986z"/>
			<path opacity="0.5" fill="#010101" d="M1197.488,720.845c15.668,11.17,29.633,21.433,46.295,33.678
				c19.58-20.679,51.717-57.521,59.724-86.186l-51.46-19.431C1240.708,677.591,1221.67,702.426,1197.488,720.845z"/>
		</g>
		<g id="rs2">
			<path opacity="0.7" fill="#010101" d="M1422.441,449.287l-67.816,27.951c14.548,33.897,22.623,71.2,22.623,110.364
				c0,35.744-6.729,69.943-18.963,101.419l68.622,25.91c15.296-39.527,23.698-82.461,23.698-127.329
				C1450.605,538.545,1440.556,491.803,1422.441,449.287z"/>
			<path opacity="0.9" fill="#010101" d="M1352.004,338.498c-23.151,17.014-39.537,29.056-60.247,44.276
				c26.96,19.892,51.856,68.81,62.868,94.464l67.816-27.951C1409.327,418.508,1377.248,362,1352.004,338.498z"/>
			<path opacity="0.5" fill="#010101" d="M1292.766,790.521c19.939,14.654,39.401,29.813,59.795,43.944
				c28.606-31.131,60.957-84.931,74.347-119.533l-68.622-25.91C1347.5,726.668,1312.159,767.273,1292.766,790.521z"/>
		</g>
		<g id="rs3">
			<path opacity="0.5" fill="#010101" d="M1396.139,866.492c24.49,17.998,44.192,29.906,67.615,49.691
				c40.006-44.454,70.594-95.662,92.416-152.443l-77.21-29.153C1462.857,776.363,1426.907,832.002,1396.139,866.492z"/>
			<path opacity="0.9" fill="#010101" d="M1461.754,257.84c-26.92,18.16-41.203,28.464-65.603,48.213
				c25.569,30.704,61.929,84.745,77.741,122.027l76.305-31.449C1528.559,345.39,1498.496,298.543,1461.754,257.84z"/>
			<path opacity="0.7" fill="#010101" d="M1550.197,396.631l-76.305,31.449c20.808,49.057,32.336,102.963,32.336,159.522
				c0,51.772-9.672,101.33-27.269,146.984l77.21,29.153c21.031-54.721,32.57-114.108,32.57-176.138
				C1588.74,519.92,1575.008,455.387,1550.197,396.631z"/>
		</g>
	</g>
	<g id="left-signal">
		<g id="ls1">
			<path opacity="0.7" fill="#010101" d="M331.192,499.547l50.855,20.96c-9.03,20.551-14.052,43.245-14.052,67.096
				c0,21.632,4.14,42.31,11.648,61.304l-51.459,19.431c-9.806-25.036-15.209-52.261-15.209-80.734
				C312.975,556.331,319.484,526.56,331.192,499.547z"/>
			<path opacity="0.9" fill="#010101" d="M387.847,417.986c13.735,10.094,31.276,22.985,47.893,35.197
				c-23.262,17.298-41.898,40.48-53.692,67.323l-50.855-20.96C341.832,474.997,366.857,436,387.847,417.986z"/>
			<path opacity="0.5" fill="#010101" d="M434.203,720.845c-15.668,11.17-29.633,21.433-46.295,33.678
				c-19.58-20.679-51.717-57.521-59.724-86.186l51.459-19.431C390.983,677.591,410.021,702.426,434.203,720.845z"/>
		</g>
		<g id="ls2">
			<path opacity="0.7" fill="#010101" d="M209.25,449.287l67.816,27.951c-14.548,33.897-22.624,71.2-22.624,110.364
				c0,35.744,6.729,69.943,18.963,101.419l-68.622,25.91c-15.296-39.527-23.698-82.461-23.698-127.329
				C181.086,538.545,191.136,491.803,209.25,449.287z"/>
			<path opacity="0.9" fill="#010101" d="M279.688,338.498c23.151,17.014,39.537,29.056,60.247,44.276
				c-26.959,19.892-51.857,68.81-62.868,94.464l-67.816-27.951C222.364,418.508,254.443,362,279.688,338.498z"/>
			<path opacity="0.5" fill="#010101" d="M338.926,790.521c-19.94,14.654-39.402,29.813-59.795,43.944
				c-28.606-31.131-60.957-84.931-74.347-119.533l68.622-25.91C284.191,726.668,319.532,767.273,338.926,790.521z"/>
		</g>
		<g id="ls3">
			<path opacity="0.5" fill="#010101" d="M235.552,866.492c-24.491,17.998-44.192,29.906-67.615,49.691
				c-40.006-44.454-70.594-95.662-92.416-152.443l77.21-29.153C168.833,776.363,204.784,832.002,235.552,866.492z"/>
			<path opacity="0.9" fill="#010101" d="M169.938,257.84c26.92,18.16,41.204,28.464,65.603,48.213
				c-25.569,30.704-61.929,84.745-77.742,122.027l-76.304-31.449C103.132,345.39,133.195,298.543,169.938,257.84z"/>
			<path opacity="0.7" fill="#010101" d="M81.495,396.631l76.304,31.449c-20.807,49.057-32.336,102.963-32.336,159.522
				c0,51.772,9.672,101.33,27.269,146.984l-77.21,29.153c-21.031-54.721-32.57-114.108-32.57-176.138
				C42.951,519.92,56.684,455.387,81.495,396.631z"/>
		</g>
	</g>
</g>
<g transform="translate(0, 5)">
	<path opacity="0.5" fill="none" stroke="#414042" stroke-width="2" stroke-miterlimit="10" d="M1300.5,492.721
		c-10.64-24.55-35.665-63.547-56.655-81.561c-13.735,10.094-31.276,22.985-47.893,35.197c23.262,17.298,41.898,40.48,53.692,67.323
		c9.03,20.551,14.053,43.245,14.053,67.096c0,21.632-4.14,42.31-11.649,61.304c-11.339,28.685-30.377,53.52-54.559,71.938
		c15.668,11.17,29.633,21.433,46.295,33.678c19.58-20.679,51.717-57.521,59.724-86.186c9.806-25.036,15.209-52.261,15.209-80.734
		C1318.716,549.505,1312.208,519.733,1300.5,492.721z"/>
	<path opacity="0.5" fill="none" stroke="#414042" stroke-width="2" stroke-miterlimit="10" d="M1422.441,442.461
		c-13.114-30.779-45.193-87.287-70.438-110.789c-23.151,17.014-39.537,29.056-60.247,44.276
		c26.959,19.892,51.857,68.81,62.868,94.464c14.548,33.897,22.623,71.2,22.623,110.364c0,35.744-6.729,69.943-18.962,101.419
		c-10.785,37.646-46.126,78.252-65.52,101.499c19.94,14.654,39.402,29.813,59.795,43.944c28.606-31.131,60.957-84.931,74.347-119.533
		c15.296-39.527,23.698-82.461,23.698-127.329C1450.605,531.719,1440.556,484.977,1422.441,442.461z"/>
	<path opacity="0.5" fill="none" stroke="#414042" stroke-width="2" stroke-miterlimit="10" d="M1550.197,389.805
		c-21.638-51.241-51.701-98.088-88.443-138.791c-26.92,18.16-41.204,28.464-65.603,48.213
		c25.569,30.704,61.929,84.745,77.742,122.027c20.807,49.057,32.335,102.963,32.335,159.522c0,51.772-9.672,101.33-27.269,146.984
		c-16.102,41.776-52.053,97.415-82.821,131.905c24.49,17.998,44.192,29.906,67.615,49.691
		c40.006-44.454,70.594-95.662,92.416-152.443c21.031-54.721,32.57-114.108,32.57-176.138
		C1588.74,513.094,1575.008,448.561,1550.197,389.805z"/>
	<path opacity="0.5" fill="none" stroke="#414042" stroke-width="2" stroke-miterlimit="10" d="M379.644,642.08
		c-7.508-18.994-11.648-39.672-11.648-61.304c0-23.851,5.022-46.545,14.052-67.096c11.794-26.843,30.43-50.025,53.692-67.323
		c-16.617-12.212-34.158-25.104-47.893-35.197c-20.99,18.014-46.015,57.011-56.655,81.561
		c-11.708,27.013-18.217,56.784-18.217,88.056c0,28.474,5.404,55.698,15.209,80.734c8.007,28.665,40.144,65.507,59.724,86.186
		c16.662-12.245,30.626-22.508,46.295-33.678C410.021,695.6,390.983,670.765,379.644,642.08z"/>
	<path opacity="0.5" fill="none" stroke="#414042" stroke-width="2" stroke-miterlimit="10" d="M254.443,580.776
		c0-39.164,8.075-76.467,22.624-110.364c11.011-25.654,35.908-74.572,62.868-94.464c-20.71-15.221-37.096-27.263-60.247-44.276
		c-25.244,23.502-57.323,80.01-70.437,110.789c-18.115,42.516-28.165,89.258-28.165,138.315c0,44.868,8.402,87.802,23.698,127.329
		c13.39,34.603,45.74,88.402,74.347,119.533c20.394-14.131,39.855-29.29,59.795-43.944c-19.394-23.247-54.735-63.853-65.52-101.499
		C261.172,650.72,254.443,616.521,254.443,580.776z"/>
	<path opacity="0.7" fill="none" stroke="#414042" stroke-width="2" stroke-miterlimit="10" d="M152.731,727.761
		c-17.597-45.654-27.269-95.212-27.269-146.984c0-56.56,11.529-110.466,32.336-159.522c15.813-37.282,52.172-91.323,77.742-122.027
		c-24.399-19.749-38.683-30.053-65.603-48.213c-36.742,40.703-66.805,87.55-88.443,138.791
		c-24.811,58.756-38.543,123.289-38.543,190.972c0,62.029,11.539,121.417,32.57,176.138c21.822,56.781,52.41,107.989,92.416,152.443
		c23.423-19.785,43.124-31.693,67.615-49.691C204.784,825.176,168.833,769.537,152.731,727.761z"/>
</g>
   <script type="text/javascript" xlink:href="../js/snap.svg-min.js"></script>
   <script type="text/javascript">
   <![CDATA[
	  var diagramGroup = Snap.select('#Layer_1');
	  var loading1  = diagramGroup.select('#loading1').attr({width: 0});
	  var loading2 = diagramGroup.select('#loading2').attr({width: 0});
	  var loading3 = diagramGroup.select('#loading3').attr({width: 0});
	  var text1  = diagramGroup.select('#text1').attr({width: 0});
	  var text2 = diagramGroup.select('#text2').attr({width: 0});
	  var text3 = diagramGroup.select('#text3').attr({width: 0});
	  var profiles = diagramGroup.select('#all-profiles');
	  var cursor = diagramGroup.select('#cursor').attr({display: 'none'});
 	  for(var j=1;j<13;j++){
		 diagramGroup.select('#update-part'+j).attr('opacity',0);
	  }
      var executeGlobe = function(){
		 done = true;      	 
       	 for(var index=1;index<4;index++){
       	 	(function(i){
       	 		setTimeout(function(){
       	 			diagramGroup.select('#ls'+(4-i)).animate({opacity: 0}, 100);
       	 			diagramGroup.select('#rs'+(4-i)).animate({opacity: 0}, 100);
       	 		}, 150*i);
       	 	})(index);
       	 }
       	 setTimeout(function(){
       	 	cursor.attr({display: 'block', x1: '708.56', x2: '708.56'});
       	 	setTimeout(function(){
       	 		text1.animate({width: 14.627}, 200, function(){
	       	 		text2.animate({width: 46.518}, 500, function(){
	       	 			text3.animate({width: 70.063}, 700, function(){
	       	 				setTimeout(function(){
	       	 					cursor.attr({display: 'none'});
	       	 					profiles.animate({opacity:'0.3'}, 500, function(){
	       	 						loading1.animate({width: 70.821}, 200, function(){
	       	 							loading2.animate({width: 126.853}, 500, function(){
	       	 								loading3.animate({width: 200.691}, 700, function(){

	       	 								})
	       	 							})
	       	 						})
	       	 					});
	       	 					diagramGroup.select('#brown-profile').animate({opacity: 0}, 600, mina.easein, function(){
			       	 				diagramGroup.select('#green-profile').animate({opacity: 0},0);
			       	 				diagramGroup.select('#brown-profile').animate({opacity: 1}, 0);
			       	 				diagramGroup.select('#brown-change1').attr('fill', '#71B7AE');
			       	 				diagramGroup.select('#brown-change2').attr('fill', '#5B9993');
			       	 				diagramGroup.select('#brown-change3').attr('width', '129.862');
			       	 				diagramGroup.select('#brown-change4').attr('width', '248.286');
			       	 				diagramGroup.select('#green-change1').attr('fill', '#F8BD6D');
			       	 				diagramGroup.select('#green-change2').attr('fill', '#E8A752');
			       	 				diagramGroup.select('#green-change3').attr('width', '92.846');
			       	 				diagramGroup.select('#green-change4').attr('width', '169.512');
			       	 				diagramGroup.select('#yellow-profile').animate({opacity: 0},0);
			       	 			});
			   	 				diagramGroup.select('#purple-profile').animate({opacity: 0}, 600, mina.easein, function(){
			       	 				diagramGroup.select('#green-profile').animate({opacity: 1},0);
			       	 				for(var index2=1;index2<13;index2++){
			       	 					(function(j){
					       	 				setTimeout(function(){
					   	 						diagramGroup.select('#update-part'+j).animate({opacity: 1}, 100);
					   	 					}, 100*j);       	 						
			       	 					})(index2)
			       	 				}
			       	 				setTimeout(function(){
			       	 					loading1.animate({opacity: 0}, 500)
			       	 					loading2.animate({opacity: 0}, 500)
			       	 					loading3.animate({opacity: 0}, 500)
			       	 					profiles.animate({opacity: 1}, 500);
			       	 				}, 1500);
			   	 				});
	       	 				}, 1000);			       	 			
		   	 			});
	       	 		});
	       	 	});
       	 		cursor.animate({x1: '856.829', x2: '856.829'}, 1400);	       	 	
       	 	}, 1000);
       	 	
       	 }, 1000)
      }
   ]]>
   </script>
   <script type="text/javascript">
      var done = false;
      document.execute = function(){
         if(!done)
            executeGlobe();
      }
   </script>
</svg>
