<?xml version="1.0" encoding="utf-8"?>
<!-- Generator: Adobe Illustrator 15.0.0, SVG Export Plug-In . SVG Version: 6.00 Build 0)  -->
<!DOCTYPE svg PUBLIC "-//W3C//DTD SVG 1.1//EN" "http://www.w3.org/Graphics/SVG/1.1/DTD/svg11.dtd">
<svg version="1.1" id="Layer_1" xmlns="http://www.w3.org/2000/svg" xmlns:xlink="http://www.w3.org/1999/xlink" x="0px" y="0px"
	 width="65.979px" height="50.515px" viewBox="0 0 65.979 50.515" enable-background="new 0 0 65.979 50.515" xml:space="preserve">
<text transform="matrix(1 0 0 1 16.9888 45.1421)" fill="#50BAEF" font-family="'SourceSansPro-Regular'" font-size="11.5029">Share</text>
<g>
	<path fill="#50BAEF" d="M43.371,21.472H40.32v-3.143c0-0.027-0.104-0.053-0.129-0.053h-2.246c-0.025,0-0.021,0.026-0.021,0.053
		v3.143h-3.158c-0.025,0-0.037,0.01-0.037,0.036v2.246c0,0.026,0.012,0.115,0.037,0.115h3.158v3.064
		c0,0.027-0.004,0.131,0.021,0.131h2.246c0.027,0,0.129-0.104,0.129-0.131v-3.064h3.051c0.025,0,0.146-0.088,0.146-0.115v-2.246
		C43.517,21.481,43.396,21.472,43.371,21.472z"/>
	<path fill="#50BAEF" d="M34.25,24.709c-0.314,0-0.557-0.342-0.557-0.656v-2.866c0-0.316,0.242-0.557,0.557-0.557h2.488v-2.484
		c-0.998-1.183-2.332-2.082-3.863-2.547c1.535-0.845,2.576-2.469,2.576-4.335c0-2.734-2.232-4.952-4.99-4.952
		c-2.754,0-4.988,2.217-4.988,4.952c0,1.867,1.041,3.491,2.578,4.335c-3.326,1.009-5.742,4.051-5.742,7.647
		c0,4.421,3.65,5.182,8.152,5.182c2.525,0,4.781-0.24,6.277-1.229v-2.49H34.25z"/>
</g>
</svg>
